solid large_test
facet normal 0.0 0.0 -1.0
outer loop
vertex 0.0 105.0 0.0
vertex 5.0 100.0 0.0
vertex 0.0 0.0 0.0
endloop
endfacet
facet normal 0.0 0.0 -1.0
outer loop
vertex 5.0 100.0 0.0
vertex 0.0 105.0 0.0
vertex 105.0 105.0 0.0
endloop
endfacet
facet normal 0.0 0.0 -1.0
outer loop
vertex 5.0 100.0 0.0
vertex 105.0 105.0 0.0
vertex 100.0 100.0 0.0
endloop
endfacet
facet normal 0.0 0.0 -1.0
outer loop
vertex 100.0 100.0 0.0
vertex 105.0 105.0 0.0
vertex 100.0 5.0 0.0
endloop
endfacet
facet normal 0.0 0.0 -1.0
outer loop
vertex 0.0 0.0 0.0
vertex 5.0 5.0 0.0
vertex 105.0 0.0 0.0
endloop
endfacet
facet normal 0.0 0.0 -1.0
outer loop
vertex 5.0 5.0 0.0
vertex 0.0 0.0 0.0
vertex 5.0 100.0 0.0
endloop
endfacet
facet normal 0.0 0.0 -1.0
outer loop
vertex 105.0 0.0 0.0
vertex 5.0 5.0 0.0
vertex 100.0 5.0 0.0
endloop
endfacet
facet normal 0.0 0.0 -1.0
outer loop
vertex 105.0 0.0 0.0
vertex 100.0 5.0 0.0
vertex 105.0 105.0 0.0
endloop
endfacet
facet normal -0.0 -0.0 1.0
outer loop
vertex 0.0 0.0 5.0
vertex 5.0 5.0 5.0
vertex 0.0 105.0 5.0
endloop
endfacet
facet normal -0.0 -0.0 1.0
outer loop
vertex 5.0 5.0 5.0
vertex 0.0 0.0 5.0
vertex 105.0 0.0 5.0
endloop
endfacet
facet normal -0.0 -0.0 1.0
outer loop
vertex 5.0 5.0 5.0
vertex 105.0 0.0 5.0
vertex 100.0 5.0 5.0
endloop
endfacet
facet normal -0.0 -0.0 1.0
outer loop
vertex 100.0 5.0 5.0
vertex 105.0 0.0 5.0
vertex 100.0 100.0 5.0
endloop
endfacet
facet normal -0.0 -0.0 1.0
outer loop
vertex 0.0 105.0 5.0
vertex 5.0 100.0 5.0
vertex 105.0 105.0 5.0
endloop
endfacet
facet normal -0.0 -0.0 1.0
outer loop
vertex 5.0 100.0 5.0
vertex 0.0 105.0 5.0
vertex 5.0 5.0 5.0
endloop
endfacet
facet normal -0.0 -0.0 1.0
outer loop
vertex 105.0 105.0 5.0
vertex 5.0 100.0 5.0
vertex 100.0 100.0 5.0
endloop
endfacet
facet normal -0.0 -0.0 1.0
outer loop
vertex 105.0 105.0 5.0
vertex 100.0 100.0 5.0
vertex 105.0 0.0 5.0
endloop
endfacet
facet normal -0.0 1.0 0.0
outer loop
vertex 0.0 105.0 5.0
vertex 105.0 105.0 0.0
vertex 0.0 105.0 0.0
endloop
endfacet
facet normal -0.0 1.0 0.0
outer loop
vertex 105.0 105.0 0.0
vertex 0.0 105.0 5.0
vertex 105.0 105.0 5.0
endloop
endfacet
facet normal 1.0 0.0 0.0
outer loop
vertex 105.0 105.0 0.0
vertex 105.0 0.0 5.0
vertex 105.0 0.0 0.0
endloop
endfacet
facet normal 1.0 0.0 0.0
outer loop
vertex 105.0 0.0 5.0
vertex 105.0 105.0 0.0
vertex 105.0 105.0 5.0
endloop
endfacet
facet normal -0.0 -1.0 -0.0
outer loop
vertex 105.0 0.0 5.0
vertex 0.0 0.0 0.0
vertex 105.0 0.0 0.0
endloop
endfacet
facet normal -0.0 -1.0 -0.0
outer loop
vertex 0.0 0.0 0.0
vertex 105.0 0.0 5.0
vertex 0.0 0.0 5.0
endloop
endfacet
facet normal -1.0 0.0 0.0
outer loop
vertex 0.0 105.0 5.0
vertex 0.0 0.0 0.0
vertex 0.0 0.0 5.0
endloop
endfacet
facet normal -1.0 0.0 0.0
outer loop
vertex 0.0 0.0 0.0
vertex 0.0 105.0 5.0
vertex 0.0 105.0 0.0
endloop
endfacet
facet normal -1.0 0.0 0.0
outer loop
vertex 100.0 100.0 5.0
vertex 100.0 5.0 0.0
vertex 100.0 5.0 5.0
endloop
endfacet
facet normal -1.0 0.0 0.0
outer loop
vertex 100.0 5.0 0.0
vertex 100.0 100.0 5.0
vertex 100.0 100.0 0.0
endloop
endfacet
facet normal -0.0 1.0 -0.0
outer loop
vertex 5.0 5.0 5.0
vertex 100.0 5.0 0.0
vertex 5.0 5.0 0.0
endloop
endfacet
facet normal -0.0 1.0 -0.0
outer loop
vertex 100.0 5.0 0.0
vertex 5.0 5.0 5.0
vertex 100.0 5.0 5.0
endloop
endfacet
facet normal 1.0 -0.0 -0.0
outer loop
vertex 5.0 100.0 0.0
vertex 5.0 5.0 5.0
vertex 5.0 5.0 0.0
endloop
endfacet
facet normal 1.0 -0.0 -0.0
outer loop
vertex 5.0 5.0 5.0
vertex 5.0 100.0 0.0
vertex 5.0 100.0 5.0
endloop
endfacet
facet normal 0.0 -1.0 0.0
outer loop
vertex 100.0 100.0 5.0
vertex 5.0 100.0 0.0
vertex 100.0 100.0 0.0
endloop
endfacet
facet normal 0.0 -1.0 0.0
outer loop
vertex 5.0 100.0 0.0
vertex 100.0 100.0 5.0
vertex 5.0 100.0 5.0
endloop
endfacet
endsolid large_test
