solid model
facet normal 0.0 0.0 -1.0
outer loop
vertex -4.5 5.51091059616309e-16 0.0
vertex -5.79555495773441 -1.55291427061512 0.0
vertex -6.0 0.0 0.0
endloop
endfacet
facet normal 0.0 0.0 -1.0
outer loop
vertex -5.79555495773441 -1.55291427061512 0.0
vertex -4.5 5.51091059616309e-16 0.0
vertex -4.34666621830081 -1.16468570296134 0.0
endloop
endfacet
facet normal 0.0 0.0 -1.0
outer loop
vertex -7.24444369716801 1.94114283826891 0.0
vertex -7.24444369716801 -1.9411428382689 0.0
vertex -7.5 9.18485099360515e-16 0.0
endloop
endfacet
facet normal 0.0 0.0 -1.0
outer loop
vertex -7.24444369716801 -1.9411428382689 0.0
vertex -7.24444369716801 1.94114283826891 0.0
vertex -6.49519052838329 -3.75 0.0
endloop
endfacet
facet normal 0.0 0.0 -1.0
outer loop
vertex -6.49519052838329 -3.75 0.0
vertex -7.24444369716801 1.94114283826891 0.0
vertex -6.49519052838329 3.75 0.0
endloop
endfacet
facet normal 0.0 0.0 -1.0
outer loop
vertex -6.49519052838329 -3.75 0.0
vertex -6.49519052838329 3.75 0.0
vertex -5.30330085889911 -5.3033008588991 0.0
endloop
endfacet
facet normal 0.0 0.0 -1.0
outer loop
vertex -5.30330085889911 -5.3033008588991 0.0
vertex -6.49519052838329 3.75 0.0
vertex -6.0 0.0 0.0
endloop
endfacet
facet normal 0.0 0.0 -1.0
outer loop
vertex -5.30330085889911 -5.3033008588991 0.0
vertex -6.0 0.0 0.0
vertex -5.79555495773441 -1.55291427061512 0.0
endloop
endfacet
facet normal 0.0 0.0 -1.0
outer loop
vertex -5.30330085889911 -5.3033008588991 0.0
vertex -5.79555495773441 -1.55291427061512 0.0
vertex -5.19615242270663 -3.0 0.0
endloop
endfacet
facet normal 0.0 0.0 -1.0
outer loop
vertex -5.30330085889911 -5.3033008588991 0.0
vertex -5.19615242270663 -3.0 0.0
vertex -3.75 -6.49519052838329 0.0
endloop
endfacet
facet normal 0.0 0.0 -1.0
outer loop
vertex -3.75 -6.49519052838329 0.0
vertex -5.19615242270663 -3.0 0.0
vertex -4.24264068711928 -4.24264068711928 0.0
endloop
endfacet
facet normal 0.0 0.0 -1.0
outer loop
vertex -3.75 -6.49519052838329 0.0
vertex -4.24264068711928 -4.24264068711928 0.0
vertex -3.0 -5.19615242270663 0.0
endloop
endfacet
facet normal 0.0 0.0 -1.0
outer loop
vertex -3.75 -6.49519052838329 0.0
vertex -3.0 -5.19615242270663 0.0
vertex -1.94114283826891 -7.24444369716801 0.0
endloop
endfacet
facet normal 0.0 0.0 -1.0
outer loop
vertex -1.94114283826891 -7.24444369716801 0.0
vertex -3.0 -5.19615242270663 0.0
vertex -2.25 -3.89711431702997 0.0
endloop
endfacet
facet normal 0.0 0.0 -1.0
outer loop
vertex -1.94114283826891 -7.24444369716801 0.0
vertex -2.25 -3.89711431702997 0.0
vertex -1.16468570296135 -4.34666621830081 0.0
endloop
endfacet
facet normal 0.0 0.0 -1.0
outer loop
vertex -1.94114283826891 -7.24444369716801 0.0
vertex -1.16468570296135 -4.34666621830081 0.0
vertex -1.55291427061513 -5.79555495773441 0.0
endloop
endfacet
facet normal 0.0 0.0 -1.0
outer loop
vertex 1.16468570296134 -4.34666621830081 0.0
vertex -3.67394039744206e-16 -6.0 0.0
vertex -8.26636589424463e-16 -4.5 0.0
endloop
endfacet
facet normal 0.0 0.0 -1.0
outer loop
vertex -3.75 6.49519052838329 0.0
vertex -5.19615242270663 3.0 0.0
vertex -5.30330085889911 5.30330085889911 0.0
endloop
endfacet
facet normal 0.0 0.0 -1.0
outer loop
vertex -5.19615242270663 3.0 0.0
vertex -3.75 6.49519052838329 0.0
vertex -4.24264068711928 4.24264068711928 0.0
endloop
endfacet
facet normal 0.0 0.0 -1.0
outer loop
vertex -4.24264068711928 4.24264068711928 0.0
vertex -3.75 6.49519052838329 0.0
vertex -3.18198051533946 3.18198051533946 0.0
endloop
endfacet
facet normal 0.0 0.0 -1.0
outer loop
vertex -3.18198051533946 3.18198051533946 0.0
vertex -3.75 6.49519052838329 0.0
vertex -3.0 5.19615242270663 0.0
endloop
endfacet
facet normal 0.0 0.0 -1.0
outer loop
vertex -3.0 5.19615242270663 0.0
vertex -3.75 6.49519052838329 0.0
vertex -1.9411428382689 7.24444369716801 0.0
endloop
endfacet
facet normal 0.0 0.0 -1.0
outer loop
vertex -3.0 5.19615242270663 0.0
vertex -1.9411428382689 7.24444369716801 0.0
vertex -1.55291427061512 5.79555495773441 0.0
endloop
endfacet
facet normal 0.0 0.0 -1.0
outer loop
vertex -1.55291427061512 5.79555495773441 0.0
vertex -1.9411428382689 7.24444369716801 0.0
vertex 4.59242549680257e-16 7.5 0.0
endloop
endfacet
facet normal 0.0 0.0 -1.0
outer loop
vertex -1.55291427061512 5.79555495773441 0.0
vertex 4.59242549680257e-16 7.5 0.0
vertex -1.16468570296134 4.34666621830081 0.0
endloop
endfacet
facet normal 0.0 0.0 -1.0
outer loop
vertex -1.16468570296134 4.34666621830081 0.0
vertex 4.59242549680257e-16 7.5 0.0
vertex 2.75545529808154e-16 4.5 0.0
endloop
endfacet
facet normal 0.0 0.0 -1.0
outer loop
vertex 2.75545529808154e-16 4.5 0.0
vertex 4.59242549680257e-16 7.5 0.0
vertex 1.10218211923262e-15 6.0 0.0
endloop
endfacet
facet normal 0.0 0.0 -1.0
outer loop
vertex 1.10218211923262e-15 6.0 0.0
vertex 4.59242549680257e-16 7.5 0.0
vertex 1.94114283826891 7.24444369716801 0.0
endloop
endfacet
facet normal 0.0 0.0 -1.0
outer loop
vertex 1.10218211923262e-15 6.0 0.0
vertex 1.94114283826891 7.24444369716801 0.0
vertex 1.55291427061513 5.79555495773441 0.0
endloop
endfacet
facet normal 0.0 0.0 -1.0
outer loop
vertex 3.18198051533946 -3.18198051533946 0.0
vertex 3.0 -5.19615242270663 0.0
vertex 2.25 -3.89711431702998 0.0
endloop
endfacet
facet normal 0.0 0.0 -1.0
outer loop
vertex 1.55291427061513 5.79555495773441 0.0
vertex 2.25 3.89711431702997 0.0
vertex 1.16468570296134 4.34666621830081 0.0
endloop
endfacet
facet normal 0.0 0.0 -1.0
outer loop
vertex 2.25 3.89711431702997 0.0
vertex 1.55291427061513 5.79555495773441 0.0
vertex 1.94114283826891 7.24444369716801 0.0
endloop
endfacet
facet normal 0.0 0.0 -1.0
outer loop
vertex 2.25 3.89711431702997 0.0
vertex 1.94114283826891 7.24444369716801 0.0
vertex 3.75 6.49519052838329 0.0
endloop
endfacet
facet normal 0.0 0.0 -1.0
outer loop
vertex 2.25 3.89711431702997 0.0
vertex 3.75 6.49519052838329 0.0
vertex 3.0 5.19615242270663 0.0
endloop
endfacet
facet normal 0.0 0.0 -1.0
outer loop
vertex 3.0 5.19615242270663 0.0
vertex 3.75 6.49519052838329 0.0
vertex 4.24264068711929 4.24264068711928 0.0
endloop
endfacet
facet normal 0.0 0.0 -1.0
outer loop
vertex 4.24264068711929 4.24264068711928 0.0
vertex 3.75 6.49519052838329 0.0
vertex 5.30330085889911 5.30330085889911 0.0
endloop
endfacet
facet normal 0.0 0.0 -1.0
outer loop
vertex 4.24264068711929 4.24264068711928 0.0
vertex 5.30330085889911 5.30330085889911 0.0
vertex 5.19615242270663 3.0 0.0
endloop
endfacet
facet normal 0.0 0.0 -1.0
outer loop
vertex 5.19615242270663 3.0 0.0
vertex 5.30330085889911 5.30330085889911 0.0
vertex 5.79555495773441 1.55291427061512 0.0
endloop
endfacet
facet normal 0.0 0.0 -1.0
outer loop
vertex 5.79555495773441 1.55291427061512 0.0
vertex 5.30330085889911 5.30330085889911 0.0
vertex 6.49519052838329 3.75 0.0
endloop
endfacet
facet normal 0.0 0.0 -1.0
outer loop
vertex 5.79555495773441 1.55291427061512 0.0
vertex 6.49519052838329 3.75 0.0
vertex 6.0 -7.34788079488412e-16 0.0
endloop
endfacet
facet normal 0.0 0.0 -1.0
outer loop
vertex 6.0 -7.34788079488412e-16 0.0
vertex 6.49519052838329 3.75 0.0
vertex 6.49519052838329 -3.75 0.0
endloop
endfacet
facet normal 0.0 0.0 -1.0
outer loop
vertex 6.49519052838329 -3.75 0.0
vertex 6.49519052838329 3.75 0.0
vertex 7.24444369716801 -1.94114283826891 0.0
endloop
endfacet
facet normal 0.0 0.0 -1.0
outer loop
vertex 7.24444369716801 -1.94114283826891 0.0
vertex 6.49519052838329 3.75 0.0
vertex 7.24444369716801 1.94114283826891 0.0
endloop
endfacet
facet normal 0.0 0.0 -1.0
outer loop
vertex 7.24444369716801 -1.94114283826891 0.0
vertex 7.24444369716801 1.94114283826891 0.0
vertex 7.5 0.0 0.0
endloop
endfacet
facet normal 0.0 0.0 -1.0
outer loop
vertex 4.34666621830081 -1.16468570296135 0.0
vertex 5.19615242270663 -3.0 0.0
vertex 3.89711431702997 -2.25 0.0
endloop
endfacet
facet normal 0.0 0.0 -1.0
outer loop
vertex 5.19615242270663 -3.0 0.0
vertex 4.34666621830081 -1.16468570296135 0.0
vertex 5.79555495773441 -1.55291427061513 0.0
endloop
endfacet
facet normal 0.0 0.0 -1.0
outer loop
vertex 5.19615242270663 -3.0 0.0
vertex 5.79555495773441 -1.55291427061513 0.0
vertex 5.30330085889911 -5.30330085889911 0.0
endloop
endfacet
facet normal 0.0 0.0 -1.0
outer loop
vertex 5.30330085889911 -5.30330085889911 0.0
vertex 5.79555495773441 -1.55291427061513 0.0
vertex 6.49519052838329 -3.75 0.0
endloop
endfacet
facet normal 0.0 0.0 -1.0
outer loop
vertex 6.49519052838329 -3.75 0.0
vertex 5.79555495773441 -1.55291427061513 0.0
vertex 6.0 -7.34788079488412e-16 0.0
endloop
endfacet
facet normal 0.0 0.0 -1.0
outer loop
vertex 5.79555495773441 1.55291427061512 0.0
vertex 4.5 0.0 0.0
vertex 4.34666621830081 1.16468570296134 0.0
endloop
endfacet
facet normal 0.0 0.0 -1.0
outer loop
vertex 4.5 0.0 0.0
vertex 5.79555495773441 1.55291427061512 0.0
vertex 6.0 -7.34788079488412e-16 0.0
endloop
endfacet
facet normal 0.0 0.0 -1.0
outer loop
vertex -1.55291427061513 -5.79555495773441 0.0
vertex -1.37772764904077e-15 -7.5 0.0
vertex -1.94114283826891 -7.24444369716801 0.0
endloop
endfacet
facet normal 0.0 0.0 -1.0
outer loop
vertex -1.37772764904077e-15 -7.5 0.0
vertex -1.55291427061513 -5.79555495773441 0.0
vertex -3.67394039744206e-16 -6.0 0.0
endloop
endfacet
facet normal 0.0 0.0 -1.0
outer loop
vertex -1.37772764904077e-15 -7.5 0.0
vertex -3.67394039744206e-16 -6.0 0.0
vertex 1.9411428382689 -7.24444369716801 0.0
endloop
endfacet
facet normal 0.0 0.0 -1.0
outer loop
vertex 1.9411428382689 -7.24444369716801 0.0
vertex -3.67394039744206e-16 -6.0 0.0
vertex 1.16468570296134 -4.34666621830081 0.0
endloop
endfacet
facet normal 0.0 0.0 -1.0
outer loop
vertex 1.9411428382689 -7.24444369716801 0.0
vertex 1.16468570296134 -4.34666621830081 0.0
vertex 1.55291427061512 -5.79555495773441 0.0
endloop
endfacet
facet normal 0.0 0.0 -1.0
outer loop
vertex 1.9411428382689 -7.24444369716801 0.0
vertex 1.55291427061512 -5.79555495773441 0.0
vertex 3.0 -5.19615242270663 0.0
endloop
endfacet
facet normal 0.0 0.0 -1.0
outer loop
vertex 1.9411428382689 -7.24444369716801 0.0
vertex 3.0 -5.19615242270663 0.0
vertex 3.74999999999999 -6.49519052838329 0.0
endloop
endfacet
facet normal 0.0 0.0 -1.0
outer loop
vertex 3.74999999999999 -6.49519052838329 0.0
vertex 3.0 -5.19615242270663 0.0
vertex 3.18198051533946 -3.18198051533946 0.0
endloop
endfacet
facet normal 0.0 0.0 -1.0
outer loop
vertex 3.74999999999999 -6.49519052838329 0.0
vertex 3.18198051533946 -3.18198051533946 0.0
vertex 4.24264068711928 -4.24264068711928 0.0
endloop
endfacet
facet normal 0.0 0.0 -1.0
outer loop
vertex 3.74999999999999 -6.49519052838329 0.0
vertex 4.24264068711928 -4.24264068711928 0.0
vertex 5.30330085889911 -5.30330085889911 0.0
endloop
endfacet
facet normal 0.0 0.0 -1.0
outer loop
vertex 5.30330085889911 -5.30330085889911 0.0
vertex 4.24264068711928 -4.24264068711928 0.0
vertex 5.19615242270663 -3.0 0.0
endloop
endfacet
facet normal 0.0 0.0 -1.0
outer loop
vertex 4.24264068711929 4.24264068711928 0.0
vertex 3.89711431702997 2.25 0.0
vertex 3.18198051533946 3.18198051533946 0.0
endloop
endfacet
facet normal 0.0 0.0 -1.0
outer loop
vertex 3.89711431702997 2.25 0.0
vertex 4.24264068711929 4.24264068711928 0.0
vertex 5.19615242270663 3.0 0.0
endloop
endfacet
facet normal 0.0 0.0 -1.0
outer loop
vertex -2.25 3.89711431702997 0.0
vertex -3.18198051533946 3.18198051533946 0.0
vertex -3.0 5.19615242270663 0.0
endloop
endfacet
facet normal 0.0 0.0 -1.0
outer loop
vertex -3.89711431702997 -2.25 0.0
vertex -4.24264068711928 -4.24264068711928 0.0
vertex -5.19615242270663 -3.0 0.0
endloop
endfacet
facet normal 0.0 0.0 -1.0
outer loop
vertex -4.24264068711928 -4.24264068711928 0.0
vertex -3.89711431702997 -2.25 0.0
vertex -3.18198051533947 -3.18198051533946 0.0
endloop
endfacet
facet normal 0.0 0.0 -1.0
outer loop
vertex -5.30330085889911 5.30330085889911 0.0
vertex -6.0 0.0 0.0
vertex -6.49519052838329 3.75 0.0
endloop
endfacet
facet normal 0.0 0.0 -1.0
outer loop
vertex -6.0 0.0 0.0
vertex -5.30330085889911 5.30330085889911 0.0
vertex -5.79555495773441 1.55291427061513 0.0
endloop
endfacet
facet normal 0.0 0.0 -1.0
outer loop
vertex -5.79555495773441 1.55291427061513 0.0
vertex -5.30330085889911 5.30330085889911 0.0
vertex -5.19615242270663 3.0 0.0
endloop
endfacet
facet normal 0.0 0.0 -1.0
outer loop
vertex -5.79555495773441 1.55291427061513 0.0
vertex -5.19615242270663 3.0 0.0
vertex -4.34666621830081 1.16468570296134 0.0
endloop
endfacet
facet normal 0.0 0.0 -1.0
outer loop
vertex -4.34666621830081 1.16468570296134 0.0
vertex -5.19615242270663 3.0 0.0
vertex -3.89711431702997 2.25 0.0
endloop
endfacet
facet normal 0.0 0.0 1.0
outer loop
vertex -6.0 0.0 24.0
vertex -5.30330085889911 5.30330085889911 24.0
vertex -6.49519052838329 3.75 24.0
endloop
endfacet
facet normal 0.0 0.0 1.0
outer loop
vertex -5.30330085889911 5.30330085889911 24.0
vertex -6.0 0.0 24.0
vertex -5.79555495773441 1.55291427061513 24.0
endloop
endfacet
facet normal 0.0 0.0 1.0
outer loop
vertex -5.30330085889911 5.30330085889911 24.0
vertex -5.79555495773441 1.55291427061513 24.0
vertex -5.19615242270663 3.0 24.0
endloop
endfacet
facet normal 0.0 0.0 1.0
outer loop
vertex -5.19615242270663 3.0 24.0
vertex -5.79555495773441 1.55291427061513 24.0
vertex -4.34666621830081 1.16468570296134 24.0
endloop
endfacet
facet normal 0.0 0.0 1.0
outer loop
vertex -5.19615242270663 3.0 24.0
vertex -4.34666621830081 1.16468570296134 24.0
vertex -3.89711431702997 2.25 24.0
endloop
endfacet
facet normal 0.0 0.0 1.0
outer loop
vertex -2.25 3.89711431702997 24.0
vertex -3.0 5.19615242270663 24.0
vertex -3.18198051533946 3.18198051533946 24.0
endloop
endfacet
facet normal 0.0 0.0 1.0
outer loop
vertex 3.89711431702997 2.25 24.0
vertex 4.24264068711929 4.24264068711928 24.0
vertex 3.18198051533946 3.18198051533946 24.0
endloop
endfacet
facet normal 0.0 0.0 1.0
outer loop
vertex 4.24264068711929 4.24264068711928 24.0
vertex 3.89711431702997 2.25 24.0
vertex 5.19615242270663 3.0 24.0
endloop
endfacet
facet normal 0.0 0.0 1.0
outer loop
vertex -1.37772764904077e-15 -7.5 24.0
vertex -1.55291427061513 -5.79555495773441 24.0
vertex -1.94114283826891 -7.24444369716801 24.0
endloop
endfacet
facet normal 0.0 0.0 1.0
outer loop
vertex -1.55291427061513 -5.79555495773441 24.0
vertex -1.37772764904077e-15 -7.5 24.0
vertex -3.67394039744206e-16 -6.0 24.0
endloop
endfacet
facet normal 0.0 0.0 1.0
outer loop
vertex -3.67394039744206e-16 -6.0 24.0
vertex -1.37772764904077e-15 -7.5 24.0
vertex 1.9411428382689 -7.24444369716801 24.0
endloop
endfacet
facet normal 0.0 0.0 1.0
outer loop
vertex -3.67394039744206e-16 -6.0 24.0
vertex 1.9411428382689 -7.24444369716801 24.0
vertex 1.16468570296134 -4.34666621830081 24.0
endloop
endfacet
facet normal 0.0 0.0 1.0
outer loop
vertex 1.16468570296134 -4.34666621830081 24.0
vertex 1.9411428382689 -7.24444369716801 24.0
vertex 1.55291427061512 -5.79555495773441 24.0
endloop
endfacet
facet normal 0.0 0.0 1.0
outer loop
vertex 1.55291427061512 -5.79555495773441 24.0
vertex 1.9411428382689 -7.24444369716801 24.0
vertex 3.0 -5.19615242270663 24.0
endloop
endfacet
facet normal 0.0 0.0 1.0
outer loop
vertex 3.0 -5.19615242270663 24.0
vertex 1.9411428382689 -7.24444369716801 24.0
vertex 3.74999999999999 -6.49519052838329 24.0
endloop
endfacet
facet normal 0.0 0.0 1.0
outer loop
vertex 3.0 -5.19615242270663 24.0
vertex 3.74999999999999 -6.49519052838329 24.0
vertex 3.18198051533946 -3.18198051533946 24.0
endloop
endfacet
facet normal 0.0 0.0 1.0
outer loop
vertex 3.18198051533946 -3.18198051533946 24.0
vertex 3.74999999999999 -6.49519052838329 24.0
vertex 4.24264068711928 -4.24264068711928 24.0
endloop
endfacet
facet normal 0.0 0.0 1.0
outer loop
vertex 4.24264068711928 -4.24264068711928 24.0
vertex 3.74999999999999 -6.49519052838329 24.0
vertex 5.30330085889911 -5.30330085889911 24.0
endloop
endfacet
facet normal 0.0 0.0 1.0
outer loop
vertex 4.24264068711928 -4.24264068711928 24.0
vertex 5.30330085889911 -5.30330085889911 24.0
vertex 5.19615242270663 -3.0 24.0
endloop
endfacet
facet normal 0.0 0.0 1.0
outer loop
vertex 4.5 0.0 24.0
vertex 5.79555495773441 1.55291427061512 24.0
vertex 4.34666621830081 1.16468570296134 24.0
endloop
endfacet
facet normal 0.0 0.0 1.0
outer loop
vertex 5.79555495773441 1.55291427061512 24.0
vertex 4.5 0.0 24.0
vertex 6.0 -7.34788079488412e-16 24.0
endloop
endfacet
facet normal 0.0 0.0 1.0
outer loop
vertex 5.19615242270663 -3.0 24.0
vertex 4.34666621830081 -1.16468570296135 24.0
vertex 3.89711431702997 -2.25 24.0
endloop
endfacet
facet normal 0.0 0.0 1.0
outer loop
vertex 4.34666621830081 -1.16468570296135 24.0
vertex 5.19615242270663 -3.0 24.0
vertex 5.79555495773441 -1.55291427061513 24.0
endloop
endfacet
facet normal 0.0 0.0 1.0
outer loop
vertex 5.79555495773441 -1.55291427061513 24.0
vertex 5.19615242270663 -3.0 24.0
vertex 5.30330085889911 -5.30330085889911 24.0
endloop
endfacet
facet normal 0.0 0.0 1.0
outer loop
vertex 5.79555495773441 -1.55291427061513 24.0
vertex 5.30330085889911 -5.30330085889911 24.0
vertex 6.49519052838329 -3.75 24.0
endloop
endfacet
facet normal 0.0 0.0 1.0
outer loop
vertex 5.79555495773441 -1.55291427061513 24.0
vertex 6.49519052838329 -3.75 24.0
vertex 6.0 -7.34788079488412e-16 24.0
endloop
endfacet
facet normal 0.0 0.0 1.0
outer loop
vertex 2.25 3.89711431702997 24.0
vertex 1.55291427061513 5.79555495773441 24.0
vertex 1.16468570296134 4.34666621830081 24.0
endloop
endfacet
facet normal 0.0 0.0 1.0
outer loop
vertex 1.55291427061513 5.79555495773441 24.0
vertex 2.25 3.89711431702997 24.0
vertex 1.94114283826891 7.24444369716801 24.0
endloop
endfacet
facet normal 0.0 0.0 1.0
outer loop
vertex 1.94114283826891 7.24444369716801 24.0
vertex 2.25 3.89711431702997 24.0
vertex 3.75 6.49519052838329 24.0
endloop
endfacet
facet normal 0.0 0.0 1.0
outer loop
vertex 3.75 6.49519052838329 24.0
vertex 2.25 3.89711431702997 24.0
vertex 3.0 5.19615242270663 24.0
endloop
endfacet
facet normal 0.0 0.0 1.0
outer loop
vertex 3.75 6.49519052838329 24.0
vertex 3.0 5.19615242270663 24.0
vertex 4.24264068711929 4.24264068711928 24.0
endloop
endfacet
facet normal 0.0 0.0 1.0
outer loop
vertex 3.75 6.49519052838329 24.0
vertex 4.24264068711929 4.24264068711928 24.0
vertex 5.30330085889911 5.30330085889911 24.0
endloop
endfacet
facet normal 0.0 0.0 1.0
outer loop
vertex 5.30330085889911 5.30330085889911 24.0
vertex 4.24264068711929 4.24264068711928 24.0
vertex 5.19615242270663 3.0 24.0
endloop
endfacet
facet normal 0.0 0.0 1.0
outer loop
vertex 5.30330085889911 5.30330085889911 24.0
vertex 5.19615242270663 3.0 24.0
vertex 5.79555495773441 1.55291427061512 24.0
endloop
endfacet
facet normal 0.0 0.0 1.0
outer loop
vertex 5.30330085889911 5.30330085889911 24.0
vertex 5.79555495773441 1.55291427061512 24.0
vertex 6.49519052838329 3.75 24.0
endloop
endfacet
facet normal 0.0 0.0 1.0
outer loop
vertex 6.49519052838329 3.75 24.0
vertex 5.79555495773441 1.55291427061512 24.0
vertex 6.0 -7.34788079488412e-16 24.0
endloop
endfacet
facet normal 0.0 0.0 1.0
outer loop
vertex 6.49519052838329 3.75 24.0
vertex 6.0 -7.34788079488412e-16 24.0
vertex 6.49519052838329 -3.75 24.0
endloop
endfacet
facet normal 0.0 0.0 1.0
outer loop
vertex 6.49519052838329 3.75 24.0
vertex 6.49519052838329 -3.75 24.0
vertex 7.24444369716801 -1.94114283826891 24.0
endloop
endfacet
facet normal 0.0 0.0 1.0
outer loop
vertex 6.49519052838329 3.75 24.0
vertex 7.24444369716801 -1.94114283826891 24.0
vertex 7.24444369716801 1.94114283826891 24.0
endloop
endfacet
facet normal 0.0 0.0 1.0
outer loop
vertex 7.24444369716801 1.94114283826891 24.0
vertex 7.24444369716801 -1.94114283826891 24.0
vertex 7.5 0.0 24.0
endloop
endfacet
facet normal 0.0 0.0 1.0
outer loop
vertex 3.18198051533946 -3.18198051533946 24.0
vertex 2.25 -3.89711431702998 24.0
vertex 3.0 -5.19615242270663 24.0
endloop
endfacet
facet normal 0.0 0.0 1.0
outer loop
vertex -5.19615242270663 3.0 24.0
vertex -3.75 6.49519052838329 24.0
vertex -5.30330085889911 5.30330085889911 24.0
endloop
endfacet
facet normal 0.0 0.0 1.0
outer loop
vertex -3.75 6.49519052838329 24.0
vertex -5.19615242270663 3.0 24.0
vertex -4.24264068711928 4.24264068711928 24.0
endloop
endfacet
facet normal 0.0 0.0 1.0
outer loop
vertex -3.75 6.49519052838329 24.0
vertex -4.24264068711928 4.24264068711928 24.0
vertex -3.18198051533946 3.18198051533946 24.0
endloop
endfacet
facet normal 0.0 0.0 1.0
outer loop
vertex -3.75 6.49519052838329 24.0
vertex -3.18198051533946 3.18198051533946 24.0
vertex -3.0 5.19615242270663 24.0
endloop
endfacet
facet normal 0.0 0.0 1.0
outer loop
vertex -3.75 6.49519052838329 24.0
vertex -3.0 5.19615242270663 24.0
vertex -1.9411428382689 7.24444369716801 24.0
endloop
endfacet
facet normal 0.0 0.0 1.0
outer loop
vertex -1.9411428382689 7.24444369716801 24.0
vertex -3.0 5.19615242270663 24.0
vertex -1.55291427061512 5.79555495773441 24.0
endloop
endfacet
facet normal 0.0 0.0 1.0
outer loop
vertex -1.9411428382689 7.24444369716801 24.0
vertex -1.55291427061512 5.79555495773441 24.0
vertex 4.59242549680257e-16 7.5 24.0
endloop
endfacet
facet normal 0.0 0.0 1.0
outer loop
vertex 4.59242549680257e-16 7.5 24.0
vertex -1.55291427061512 5.79555495773441 24.0
vertex -1.16468570296134 4.34666621830081 24.0
endloop
endfacet
facet normal 0.0 0.0 1.0
outer loop
vertex 4.59242549680257e-16 7.5 24.0
vertex -1.16468570296134 4.34666621830081 24.0
vertex 2.75545529808154e-16 4.5 24.0
endloop
endfacet
facet normal 0.0 0.0 1.0
outer loop
vertex 4.59242549680257e-16 7.5 24.0
vertex 2.75545529808154e-16 4.5 24.0
vertex 1.10218211923262e-15 6.0 24.0
endloop
endfacet
facet normal 0.0 0.0 1.0
outer loop
vertex 4.59242549680257e-16 7.5 24.0
vertex 1.10218211923262e-15 6.0 24.0
vertex 1.94114283826891 7.24444369716801 24.0
endloop
endfacet
facet normal 0.0 0.0 1.0
outer loop
vertex 1.94114283826891 7.24444369716801 24.0
vertex 1.10218211923262e-15 6.0 24.0
vertex 1.55291427061513 5.79555495773441 24.0
endloop
endfacet
facet normal 0.0 0.0 1.0
outer loop
vertex 1.16468570296134 -4.34666621830081 24.0
vertex -8.26636589424463e-16 -4.5 24.0
vertex -3.67394039744206e-16 -6.0 24.0
endloop
endfacet
facet normal 0.0 0.0 1.0
outer loop
vertex -7.24444369716801 -1.9411428382689 24.0
vertex -7.24444369716801 1.94114283826891 24.0
vertex -7.5 9.18485099360515e-16 24.0
endloop
endfacet
facet normal 0.0 0.0 1.0
outer loop
vertex -7.24444369716801 1.94114283826891 24.0
vertex -7.24444369716801 -1.9411428382689 24.0
vertex -6.49519052838329 -3.75 24.0
endloop
endfacet
facet normal 0.0 0.0 1.0
outer loop
vertex -7.24444369716801 1.94114283826891 24.0
vertex -6.49519052838329 -3.75 24.0
vertex -6.49519052838329 3.75 24.0
endloop
endfacet
facet normal 0.0 0.0 1.0
outer loop
vertex -6.49519052838329 3.75 24.0
vertex -6.49519052838329 -3.75 24.0
vertex -5.30330085889911 -5.3033008588991 24.0
endloop
endfacet
facet normal 0.0 0.0 1.0
outer loop
vertex -6.49519052838329 3.75 24.0
vertex -5.30330085889911 -5.3033008588991 24.0
vertex -6.0 0.0 24.0
endloop
endfacet
facet normal 0.0 0.0 1.0
outer loop
vertex -6.0 0.0 24.0
vertex -5.30330085889911 -5.3033008588991 24.0
vertex -5.79555495773441 -1.55291427061512 24.0
endloop
endfacet
facet normal 0.0 0.0 1.0
outer loop
vertex -5.79555495773441 -1.55291427061512 24.0
vertex -5.30330085889911 -5.3033008588991 24.0
vertex -5.19615242270663 -3.0 24.0
endloop
endfacet
facet normal 0.0 0.0 1.0
outer loop
vertex -5.19615242270663 -3.0 24.0
vertex -5.30330085889911 -5.3033008588991 24.0
vertex -3.75 -6.49519052838329 24.0
endloop
endfacet
facet normal 0.0 0.0 1.0
outer loop
vertex -5.19615242270663 -3.0 24.0
vertex -3.75 -6.49519052838329 24.0
vertex -4.24264068711928 -4.24264068711928 24.0
endloop
endfacet
facet normal 0.0 0.0 1.0
outer loop
vertex -4.24264068711928 -4.24264068711928 24.0
vertex -3.75 -6.49519052838329 24.0
vertex -3.0 -5.19615242270663 24.0
endloop
endfacet
facet normal 0.0 0.0 1.0
outer loop
vertex -3.0 -5.19615242270663 24.0
vertex -3.75 -6.49519052838329 24.0
vertex -1.94114283826891 -7.24444369716801 24.0
endloop
endfacet
facet normal 0.0 0.0 1.0
outer loop
vertex -3.0 -5.19615242270663 24.0
vertex -1.94114283826891 -7.24444369716801 24.0
vertex -2.25 -3.89711431702997 24.0
endloop
endfacet
facet normal 0.0 0.0 1.0
outer loop
vertex -2.25 -3.89711431702997 24.0
vertex -1.94114283826891 -7.24444369716801 24.0
vertex -1.16468570296135 -4.34666621830081 24.0
endloop
endfacet
facet normal 0.0 0.0 1.0
outer loop
vertex -1.16468570296135 -4.34666621830081 24.0
vertex -1.94114283826891 -7.24444369716801 24.0
vertex -1.55291427061513 -5.79555495773441 24.0
endloop
endfacet
facet normal 0.0 0.0 1.0
outer loop
vertex -4.24264068711928 -4.24264068711928 24.0
vertex -3.89711431702997 -2.25 24.0
vertex -5.19615242270663 -3.0 24.0
endloop
endfacet
facet normal 0.0 0.0 1.0
outer loop
vertex -3.89711431702997 -2.25 24.0
vertex -4.24264068711928 -4.24264068711928 24.0
vertex -3.18198051533947 -3.18198051533946 24.0
endloop
endfacet
facet normal 0.0 0.0 1.0
outer loop
vertex -5.79555495773441 -1.55291427061512 24.0
vertex -4.5 5.51091059616309e-16 24.0
vertex -6.0 0.0 24.0
endloop
endfacet
facet normal 0.0 0.0 1.0
outer loop
vertex -4.5 5.51091059616309e-16 24.0
vertex -5.79555495773441 -1.55291427061512 24.0
vertex -4.34666621830081 -1.16468570296134 24.0
endloop
endfacet
facet normal 0.25881904510252 -0.965925826289069 0.0
outer loop
vertex 1.9411428382689 -7.24444369716801 24.0
vertex -1.37772764904077e-15 -7.5 0.0
vertex 1.9411428382689 -7.24444369716801 0.0
endloop
endfacet
facet normal -5.34666593738814e-16 -1.0 0.0
outer loop
vertex -1.37772764904077e-15 -7.5 0.0
vertex 1.9411428382689 -7.24444369716801 24.0
vertex -1.37772764904077e-15 -7.5 24.0
endloop
endfacet
facet normal -5.34666593738814e-16 -1.0 0.0
outer loop
vertex -1.37772764904077e-15 -7.5 24.0
vertex -1.94114283826891 -7.24444369716801 0.0
vertex -1.37772764904077e-15 -7.5 0.0
endloop
endfacet
facet normal -0.258819045102521 -0.965925826289068 0.0
outer loop
vertex -1.94114283826891 -7.24444369716801 0.0
vertex -1.37772764904077e-15 -7.5 24.0
vertex -1.94114283826891 -7.24444369716801 24.0
endloop
endfacet
facet normal -0.258819045102521 -0.965925826289068 0.0
outer loop
vertex -1.94114283826891 -7.24444369716801 24.0
vertex -3.75 -6.49519052838329 0.0
vertex -1.94114283826891 -7.24444369716801 0.0
endloop
endfacet
facet normal -0.500000000000001 -0.866025403784438 0.0
outer loop
vertex -3.75 -6.49519052838329 0.0
vertex -1.94114283826891 -7.24444369716801 24.0
vertex -3.75 -6.49519052838329 24.0
endloop
endfacet
facet normal -0.500000000000001 -0.866025403784438 0.0
outer loop
vertex -3.75 -6.49519052838329 24.0
vertex -5.30330085889911 -5.3033008588991 0.0
vertex -3.75 -6.49519052838329 0.0
endloop
endfacet
facet normal -0.707106781186548 -0.707106781186547 0.0
outer loop
vertex -5.30330085889911 -5.3033008588991 0.0
vertex -3.75 -6.49519052838329 24.0
vertex -5.30330085889911 -5.3033008588991 24.0
endloop
endfacet
facet normal -0.866025403784439 -0.5 0.0
outer loop
vertex -6.49519052838329 -3.75 24.0
vertex -5.30330085889911 -5.3033008588991 0.0
vertex -5.30330085889911 -5.3033008588991 24.0
endloop
endfacet
facet normal -0.707106781186548 -0.707106781186547 0.0
outer loop
vertex -5.30330085889911 -5.3033008588991 0.0
vertex -6.49519052838329 -3.75 24.0
vertex -6.49519052838329 -3.75 0.0
endloop
endfacet
facet normal -0.965925826289068 -0.258819045102521 0.0
outer loop
vertex -7.24444369716801 -1.9411428382689 24.0
vertex -6.49519052838329 -3.75 0.0
vertex -6.49519052838329 -3.75 24.0
endloop
endfacet
facet normal -0.866025403784439 -0.5 0.0
outer loop
vertex -6.49519052838329 -3.75 0.0
vertex -7.24444369716801 -1.9411428382689 24.0
vertex -7.24444369716801 -1.9411428382689 0.0
endloop
endfacet
facet normal -1.0 2.76244406765054e-16 0.0
outer loop
vertex -7.5 9.18485099360515e-16 24.0
vertex -7.24444369716801 -1.9411428382689 0.0
vertex -7.24444369716801 -1.9411428382689 24.0
endloop
endfacet
facet normal -0.965925826289068 -0.258819045102521 0.0
outer loop
vertex -7.24444369716801 -1.9411428382689 0.0
vertex -7.5 9.18485099360515e-16 24.0
vertex -7.5 9.18485099360515e-16 0.0
endloop
endfacet
facet normal -0.965925826289068 0.258819045102521 0.0
outer loop
vertex -7.24444369716801 1.94114283826891 24.0
vertex -7.5 9.18485099360515e-16 0.0
vertex -7.5 9.18485099360515e-16 24.0
endloop
endfacet
facet normal -1.0 2.76244406765054e-16 0.0
outer loop
vertex -7.5 9.18485099360515e-16 0.0
vertex -7.24444369716801 1.94114283826891 24.0
vertex -7.24444369716801 1.94114283826891 0.0
endloop
endfacet
facet normal -0.866025403784439 0.5 0.0
outer loop
vertex -6.49519052838329 3.75 24.0
vertex -7.24444369716801 1.94114283826891 0.0
vertex -7.24444369716801 1.94114283826891 24.0
endloop
endfacet
facet normal -0.965925826289068 0.258819045102521 0.0
outer loop
vertex -7.24444369716801 1.94114283826891 0.0
vertex -6.49519052838329 3.75 24.0
vertex -6.49519052838329 3.75 0.0
endloop
endfacet
facet normal -0.707106781186547 0.707106781186548 0.0
outer loop
vertex -5.30330085889911 5.30330085889911 24.0
vertex -6.49519052838329 3.75 0.0
vertex -6.49519052838329 3.75 24.0
endloop
endfacet
facet normal -0.866025403784439 0.5 0.0
outer loop
vertex -6.49519052838329 3.75 0.0
vertex -5.30330085889911 5.30330085889911 24.0
vertex -5.30330085889911 5.30330085889911 0.0
endloop
endfacet
facet normal -0.707106781186547 0.707106781186548 0.0
outer loop
vertex -5.30330085889911 5.30330085889911 24.0
vertex -3.75 6.49519052838329 0.0
vertex -5.30330085889911 5.30330085889911 0.0
endloop
endfacet
facet normal -0.5 0.866025403784439 0.0
outer loop
vertex -3.75 6.49519052838329 0.0
vertex -5.30330085889911 5.30330085889911 24.0
vertex -3.75 6.49519052838329 24.0
endloop
endfacet
facet normal -0.5 0.866025403784439 0.0
outer loop
vertex -3.75 6.49519052838329 24.0
vertex -1.9411428382689 7.24444369716801 0.0
vertex -3.75 6.49519052838329 0.0
endloop
endfacet
facet normal -0.258819045102521 0.965925826289068 0.0
outer loop
vertex -1.9411428382689 7.24444369716801 0.0
vertex -3.75 6.49519052838329 24.0
vertex -1.9411428382689 7.24444369716801 24.0
endloop
endfacet
facet normal -0.258819045102521 0.965925826289068 0.0
outer loop
vertex -1.9411428382689 7.24444369716801 24.0
vertex 4.59242549680257e-16 7.5 0.0
vertex -1.9411428382689 7.24444369716801 0.0
endloop
endfacet
facet normal -5.34666593738814e-17 1.0 0.0
outer loop
vertex 4.59242549680257e-16 7.5 0.0
vertex -1.9411428382689 7.24444369716801 24.0
vertex 4.59242549680257e-16 7.5 24.0
endloop
endfacet
facet normal -5.34666593738814e-17 1.0 0.0
outer loop
vertex 4.59242549680257e-16 7.5 24.0
vertex 1.94114283826891 7.24444369716801 0.0
vertex 4.59242549680257e-16 7.5 0.0
endloop
endfacet
facet normal 0.258819045102521 0.965925826289068 0.0
outer loop
vertex 1.94114283826891 7.24444369716801 0.0
vertex 4.59242549680257e-16 7.5 24.0
vertex 1.94114283826891 7.24444369716801 24.0
endloop
endfacet
facet normal 0.258819045102521 0.965925826289068 0.0
outer loop
vertex 1.94114283826891 7.24444369716801 24.0
vertex 3.75 6.49519052838329 0.0
vertex 1.94114283826891 7.24444369716801 0.0
endloop
endfacet
facet normal 0.5 0.866025403784439 0.0
outer loop
vertex 3.75 6.49519052838329 0.0
vertex 1.94114283826891 7.24444369716801 24.0
vertex 3.75 6.49519052838329 24.0
endloop
endfacet
facet normal 0.5 0.866025403784439 0.0
outer loop
vertex 3.75 6.49519052838329 24.0
vertex 5.30330085889911 5.30330085889911 0.0
vertex 3.75 6.49519052838329 0.0
endloop
endfacet
facet normal 0.707106781186547 0.707106781186548 0.0
outer loop
vertex 5.30330085889911 5.30330085889911 0.0
vertex 3.75 6.49519052838329 24.0
vertex 5.30330085889911 5.30330085889911 24.0
endloop
endfacet
facet normal 0.707106781186547 0.707106781186548 0.0
outer loop
vertex 5.30330085889911 5.30330085889911 0.0
vertex 6.49519052838329 3.75 24.0
vertex 6.49519052838329 3.75 0.0
endloop
endfacet
facet normal 0.866025403784439 0.5 0.0
outer loop
vertex 6.49519052838329 3.75 24.0
vertex 5.30330085889911 5.30330085889911 0.0
vertex 5.30330085889911 5.30330085889911 24.0
endloop
endfacet
facet normal 0.866025403784439 0.5 0.0
outer loop
vertex 6.49519052838329 3.75 0.0
vertex 7.24444369716801 1.94114283826891 24.0
vertex 7.24444369716801 1.94114283826891 0.0
endloop
endfacet
facet normal 0.965925826289068 0.258819045102521 0.0
outer loop
vertex 7.24444369716801 1.94114283826891 24.0
vertex 6.49519052838329 3.75 0.0
vertex 6.49519052838329 3.75 24.0
endloop
endfacet
facet normal 0.965925826289068 0.258819045102521 0.0
outer loop
vertex 7.24444369716801 1.94114283826891 0.0
vertex 7.5 0.0 24.0
vertex 7.5 0.0 0.0
endloop
endfacet
facet normal 1.0 -1.51488868225997e-16 0.0
outer loop
vertex 7.5 0.0 24.0
vertex 7.24444369716801 1.94114283826891 0.0
vertex 7.24444369716801 1.94114283826891 24.0
endloop
endfacet
facet normal 1.0 -1.51488868225997e-16 0.0
outer loop
vertex 7.5 0.0 0.0
vertex 7.24444369716801 -1.94114283826891 24.0
vertex 7.24444369716801 -1.94114283826891 0.0
endloop
endfacet
facet normal 0.965925826289068 -0.258819045102521 0.0
outer loop
vertex 7.24444369716801 -1.94114283826891 24.0
vertex 7.5 0.0 0.0
vertex 7.5 0.0 24.0
endloop
endfacet
facet normal 0.965925826289068 -0.258819045102521 0.0
outer loop
vertex 7.24444369716801 -1.94114283826891 0.0
vertex 6.49519052838329 -3.75 24.0
vertex 6.49519052838329 -3.75 0.0
endloop
endfacet
facet normal 0.866025403784439 -0.5 0.0
outer loop
vertex 6.49519052838329 -3.75 24.0
vertex 7.24444369716801 -1.94114283826891 0.0
vertex 7.24444369716801 -1.94114283826891 24.0
endloop
endfacet
facet normal 0.866025403784439 -0.5 0.0
outer loop
vertex 6.49519052838329 -3.75 0.0
vertex 5.30330085889911 -5.30330085889911 24.0
vertex 5.30330085889911 -5.30330085889911 0.0
endloop
endfacet
facet normal 0.707106781186547 -0.707106781186548 0.0
outer loop
vertex 5.30330085889911 -5.30330085889911 24.0
vertex 6.49519052838329 -3.75 0.0
vertex 6.49519052838329 -3.75 24.0
endloop
endfacet
facet normal 0.707106781186547 -0.707106781186548 0.0
outer loop
vertex 5.30330085889911 -5.30330085889911 24.0
vertex 3.74999999999999 -6.49519052838329 0.0
vertex 5.30330085889911 -5.30330085889911 0.0
endloop
endfacet
facet normal 0.499999999999999 -0.866025403784439 0.0
outer loop
vertex 3.74999999999999 -6.49519052838329 0.0
vertex 5.30330085889911 -5.30330085889911 24.0
vertex 3.74999999999999 -6.49519052838329 24.0
endloop
endfacet
facet normal 0.499999999999999 -0.866025403784439 0.0
outer loop
vertex 3.74999999999999 -6.49519052838329 24.0
vertex 1.9411428382689 -7.24444369716801 0.0
vertex 3.74999999999999 -6.49519052838329 0.0
endloop
endfacet
facet normal 0.25881904510252 -0.965925826289069 0.0
outer loop
vertex 1.9411428382689 -7.24444369716801 0.0
vertex 3.74999999999999 -6.49519052838329 24.0
vertex 1.9411428382689 -7.24444369716801 24.0
endloop
endfacet
facet normal 0.923879532511287 0.38268343236509 0.0
outer loop
vertex -5.79555495773441 -1.55291427061512 0.0
vertex -5.19615242270663 -3.0 24.0
vertex -5.19615242270663 -3.0 0.0
endloop
endfacet
facet normal 0.923879532511287 0.38268343236509 0.0
outer loop
vertex -5.19615242270663 -3.0 24.0
vertex -5.79555495773441 -1.55291427061512 0.0
vertex -5.79555495773441 -1.55291427061512 24.0
endloop
endfacet
facet normal -0.5 0.866025403784438 0.0
outer loop
vertex -5.19615242270663 -3.0 24.0
vertex -3.89711431702997 -2.25 0.0
vertex -5.19615242270663 -3.0 0.0
endloop
endfacet
facet normal -0.5 0.866025403784438 0.0
outer loop
vertex -3.89711431702997 -2.25 0.0
vertex -5.19615242270663 -3.0 24.0
vertex -3.89711431702997 -2.25 24.0
endloop
endfacet
facet normal 0.793353340291235 0.60876142900872 0.0
outer loop
vertex -3.89711431702997 -2.25 0.0
vertex -3.18198051533947 -3.18198051533946 24.0
vertex -3.18198051533947 -3.18198051533946 0.0
endloop
endfacet
facet normal 0.793353340291235 0.60876142900872 0.0
outer loop
vertex -3.18198051533947 -3.18198051533946 24.0
vertex -3.89711431702997 -2.25 0.0
vertex -3.89711431702997 -2.25 24.0
endloop
endfacet
facet normal 0.707106781186548 -0.707106781186546 0.0
outer loop
vertex -3.18198051533947 -3.18198051533946 0.0
vertex -4.24264068711928 -4.24264068711928 24.0
vertex -4.24264068711928 -4.24264068711928 0.0
endloop
endfacet
facet normal 0.707106781186548 -0.707106781186546 0.0
outer loop
vertex -4.24264068711928 -4.24264068711928 24.0
vertex -3.18198051533947 -3.18198051533946 0.0
vertex -3.18198051533947 -3.18198051533946 24.0
endloop
endfacet
facet normal 0.608761429008721 0.793353340291235 0.0
outer loop
vertex -4.24264068711928 -4.24264068711928 24.0
vertex -3.0 -5.19615242270663 0.0
vertex -4.24264068711928 -4.24264068711928 0.0
endloop
endfacet
facet normal 0.608761429008721 0.793353340291235 0.0
outer loop
vertex -3.0 -5.19615242270663 0.0
vertex -4.24264068711928 -4.24264068711928 24.0
vertex -3.0 -5.19615242270663 24.0
endloop
endfacet
facet normal -0.866025403784439 0.499999999999999 0.0
outer loop
vertex -2.25 -3.89711431702997 24.0
vertex -3.0 -5.19615242270663 0.0
vertex -3.0 -5.19615242270663 24.0
endloop
endfacet
facet normal -0.866025403784439 0.499999999999999 0.0
outer loop
vertex -3.0 -5.19615242270663 0.0
vertex -2.25 -3.89711431702997 24.0
vertex -2.25 -3.89711431702997 0.0
endloop
endfacet
facet normal 0.38268343236509 0.923879532511286 0.0
outer loop
vertex -2.25 -3.89711431702997 24.0
vertex -1.16468570296135 -4.34666621830081 0.0
vertex -2.25 -3.89711431702997 0.0
endloop
endfacet
facet normal 0.38268343236509 0.923879532511286 0.0
outer loop
vertex -1.16468570296135 -4.34666621830081 0.0
vertex -2.25 -3.89711431702997 24.0
vertex -1.16468570296135 -4.34666621830081 24.0
endloop
endfacet
facet normal 0.965925826289069 -0.258819045102519 0.0
outer loop
vertex -1.16468570296135 -4.34666621830081 0.0
vertex -1.55291427061513 -5.79555495773441 24.0
vertex -1.55291427061513 -5.79555495773441 0.0
endloop
endfacet
facet normal 0.965925826289069 -0.258819045102519 0.0
outer loop
vertex -1.55291427061513 -5.79555495773441 24.0
vertex -1.16468570296135 -4.34666621830081 0.0
vertex -1.16468570296135 -4.34666621830081 24.0
endloop
endfacet
facet normal 0.130526192220052 0.991444861373811 0.0
outer loop
vertex -1.55291427061513 -5.79555495773441 24.0
vertex -3.67394039744206e-16 -6.0 0.0
vertex -1.55291427061513 -5.79555495773441 0.0
endloop
endfacet
facet normal 0.130526192220052 0.991444861373811 0.0
outer loop
vertex -3.67394039744206e-16 -6.0 0.0
vertex -1.55291427061513 -5.79555495773441 24.0
vertex -3.67394039744206e-16 -6.0 24.0
endloop
endfacet
facet normal -1.0 -3.06161699786838e-16 -0.0
outer loop
vertex -8.26636589424463e-16 -4.5 24.0
vertex -3.67394039744206e-16 -6.0 0.0
vertex -3.67394039744206e-16 -6.0 24.0
endloop
endfacet
facet normal -1.0 -3.06161699786838e-16 -0.0
outer loop
vertex -3.67394039744206e-16 -6.0 0.0
vertex -8.26636589424463e-16 -4.5 24.0
vertex -8.26636589424463e-16 -4.5 0.0
endloop
endfacet
facet normal -0.130526192220051 0.99144486137381 0.0
outer loop
vertex -8.26636589424463e-16 -4.5 24.0
vertex 1.16468570296134 -4.34666621830081 0.0
vertex -8.26636589424463e-16 -4.5 0.0
endloop
endfacet
facet normal -0.130526192220051 0.99144486137381 0.0
outer loop
vertex 1.16468570296134 -4.34666621830081 0.0
vertex -8.26636589424463e-16 -4.5 24.0
vertex 1.16468570296134 -4.34666621830081 24.0
endloop
endfacet
facet normal 0.965925826289068 0.258819045102522 0.0
outer loop
vertex 1.16468570296134 -4.34666621830081 0.0
vertex 1.55291427061512 -5.79555495773441 24.0
vertex 1.55291427061512 -5.79555495773441 0.0
endloop
endfacet
facet normal 0.965925826289068 0.258819045102522 0.0
outer loop
vertex 1.55291427061512 -5.79555495773441 24.0
vertex 1.16468570296134 -4.34666621830081 0.0
vertex 1.16468570296134 -4.34666621830081 24.0
endloop
endfacet
facet normal -0.38268343236509 0.923879532511287 0.0
outer loop
vertex 1.55291427061512 -5.79555495773441 24.0
vertex 3.0 -5.19615242270663 0.0
vertex 1.55291427061512 -5.79555495773441 0.0
endloop
endfacet
facet normal -0.38268343236509 0.923879532511287 0.0
outer loop
vertex 3.0 -5.19615242270663 0.0
vertex 1.55291427061512 -5.79555495773441 24.0
vertex 3.0 -5.19615242270663 24.0
endloop
endfacet
facet normal -0.866025403784438 -0.500000000000001 -0.0
outer loop
vertex 2.25 -3.89711431702998 24.0
vertex 3.0 -5.19615242270663 0.0
vertex 3.0 -5.19615242270663 24.0
endloop
endfacet
facet normal -0.866025403784438 -0.500000000000001 -0.0
outer loop
vertex 3.0 -5.19615242270663 0.0
vertex 2.25 -3.89711431702998 24.0
vertex 2.25 -3.89711431702998 0.0
endloop
endfacet
facet normal -0.60876142900872 0.793353340291235 0.0
outer loop
vertex 2.25 -3.89711431702998 24.0
vertex 3.18198051533946 -3.18198051533946 0.0
vertex 2.25 -3.89711431702998 0.0
endloop
endfacet
facet normal -0.60876142900872 0.793353340291235 0.0
outer loop
vertex 3.18198051533946 -3.18198051533946 0.0
vertex 2.25 -3.89711431702998 24.0
vertex 3.18198051533946 -3.18198051533946 24.0
endloop
endfacet
facet normal 0.707106781186547 0.707106781186547 0.0
outer loop
vertex 3.18198051533946 -3.18198051533946 0.0
vertex 4.24264068711928 -4.24264068711928 24.0
vertex 4.24264068711928 -4.24264068711928 0.0
endloop
endfacet
facet normal 0.707106781186547 0.707106781186547 0.0
outer loop
vertex 4.24264068711928 -4.24264068711928 24.0
vertex 3.18198051533946 -3.18198051533946 0.0
vertex 3.18198051533946 -3.18198051533946 24.0
endloop
endfacet
facet normal -0.793353340291235 0.608761429008721 0.0
outer loop
vertex 5.19615242270663 -3.0 24.0
vertex 4.24264068711928 -4.24264068711928 0.0
vertex 4.24264068711928 -4.24264068711928 24.0
endloop
endfacet
facet normal -0.793353340291235 0.608761429008721 0.0
outer loop
vertex 4.24264068711928 -4.24264068711928 0.0
vertex 5.19615242270663 -3.0 24.0
vertex 5.19615242270663 -3.0 0.0
endloop
endfacet
facet normal -0.5 -0.866025403784439 -0.0
outer loop
vertex 5.19615242270663 -3.0 24.0
vertex 3.89711431702997 -2.25 0.0
vertex 5.19615242270663 -3.0 0.0
endloop
endfacet
facet normal -0.5 -0.866025403784439 -0.0
outer loop
vertex 3.89711431702997 -2.25 0.0
vertex 5.19615242270663 -3.0 24.0
vertex 3.89711431702997 -2.25 24.0
endloop
endfacet
facet normal -0.923879532511286 0.382683432365091 0.0
outer loop
vertex 4.34666621830081 -1.16468570296135 24.0
vertex 3.89711431702997 -2.25 0.0
vertex 3.89711431702997 -2.25 24.0
endloop
endfacet
facet normal -0.923879532511286 0.382683432365091 0.0
outer loop
vertex 3.89711431702997 -2.25 0.0
vertex 4.34666621830081 -1.16468570296135 24.0
vertex 4.34666621830081 -1.16468570296135 0.0
endloop
endfacet
facet normal 0.25881904510252 0.965925826289069 0.0
outer loop
vertex 4.34666621830081 -1.16468570296135 24.0
vertex 5.79555495773441 -1.55291427061513 0.0
vertex 4.34666621830081 -1.16468570296135 0.0
endloop
endfacet
facet normal 0.25881904510252 0.965925826289069 0.0
outer loop
vertex 5.79555495773441 -1.55291427061513 0.0
vertex 4.34666621830081 -1.16468570296135 24.0
vertex 5.79555495773441 -1.55291427061513 24.0
endloop
endfacet
facet normal -0.991444861373811 0.130526192220052 0.0
outer loop
vertex 6.0 -7.34788079488412e-16 24.0
vertex 5.79555495773441 -1.55291427061513 0.0
vertex 5.79555495773441 -1.55291427061513 24.0
endloop
endfacet
facet normal -0.991444861373811 0.130526192220052 0.0
outer loop
vertex 5.79555495773441 -1.55291427061513 0.0
vertex 6.0 -7.34788079488412e-16 24.0
vertex 6.0 -7.34788079488412e-16 0.0
endloop
endfacet
facet normal -4.89858719658941e-16 -1.0 -0.0
outer loop
vertex 6.0 -7.34788079488412e-16 24.0
vertex 4.5 0.0 0.0
vertex 6.0 -7.34788079488412e-16 0.0
endloop
endfacet
facet normal -4.89858719658941e-16 -1.0 -0.0
outer loop
vertex 4.5 0.0 0.0
vertex 6.0 -7.34788079488412e-16 24.0
vertex 4.5 0.0 24.0
endloop
endfacet
facet normal -0.99144486137381 -0.130526192220052 -0.0
outer loop
vertex 4.34666621830081 1.16468570296134 24.0
vertex 4.5 0.0 0.0
vertex 4.5 0.0 24.0
endloop
endfacet
facet normal -0.99144486137381 -0.130526192220052 -0.0
outer loop
vertex 4.5 0.0 0.0
vertex 4.34666621830081 1.16468570296134 24.0
vertex 4.34666621830081 1.16468570296134 0.0
endloop
endfacet
facet normal -0.258819045102519 0.965925826289069 0.0
outer loop
vertex 4.34666621830081 1.16468570296134 24.0
vertex 5.79555495773441 1.55291427061512 0.0
vertex 4.34666621830081 1.16468570296134 0.0
endloop
endfacet
facet normal -0.258819045102519 0.965925826289069 0.0
outer loop
vertex 5.79555495773441 1.55291427061512 0.0
vertex 4.34666621830081 1.16468570296134 24.0
vertex 5.79555495773441 1.55291427061512 24.0
endloop
endfacet
facet normal -0.923879532511287 -0.382683432365089 -0.0
outer loop
vertex 5.19615242270663 3.0 24.0
vertex 5.79555495773441 1.55291427061512 0.0
vertex 5.79555495773441 1.55291427061512 24.0
endloop
endfacet
facet normal -0.923879532511287 -0.382683432365089 -0.0
outer loop
vertex 5.79555495773441 1.55291427061512 0.0
vertex 5.19615242270663 3.0 24.0
vertex 5.19615242270663 3.0 0.0
endloop
endfacet
facet normal 0.499999999999999 -0.866025403784439 0.0
outer loop
vertex 5.19615242270663 3.0 24.0
vertex 3.89711431702997 2.25 0.0
vertex 5.19615242270663 3.0 0.0
endloop
endfacet
facet normal 0.499999999999999 -0.866025403784439 0.0
outer loop
vertex 3.89711431702997 2.25 0.0
vertex 5.19615242270663 3.0 24.0
vertex 3.89711431702997 2.25 24.0
endloop
endfacet
facet normal -0.793353340291235 -0.60876142900872 -0.0
outer loop
vertex 3.18198051533946 3.18198051533946 24.0
vertex 3.89711431702997 2.25 0.0
vertex 3.89711431702997 2.25 24.0
endloop
endfacet
facet normal -0.793353340291235 -0.60876142900872 -0.0
outer loop
vertex 3.89711431702997 2.25 0.0
vertex 3.18198051533946 3.18198051533946 24.0
vertex 3.18198051533946 3.18198051533946 0.0
endloop
endfacet
facet normal -0.707106781186546 0.707106781186549 0.0
outer loop
vertex 3.18198051533946 3.18198051533946 24.0
vertex 4.24264068711929 4.24264068711928 0.0
vertex 3.18198051533946 3.18198051533946 0.0
endloop
endfacet
facet normal -0.707106781186546 0.707106781186549 0.0
outer loop
vertex 4.24264068711929 4.24264068711928 0.0
vertex 3.18198051533946 3.18198051533946 24.0
vertex 4.24264068711929 4.24264068711928 24.0
endloop
endfacet
facet normal -0.608761429008721 -0.793353340291235 -0.0
outer loop
vertex 4.24264068711929 4.24264068711928 24.0
vertex 3.0 5.19615242270663 0.0
vertex 4.24264068711929 4.24264068711928 0.0
endloop
endfacet
facet normal -0.608761429008721 -0.793353340291235 -0.0
outer loop
vertex 3.0 5.19615242270663 0.0
vertex 4.24264068711929 4.24264068711928 24.0
vertex 3.0 5.19615242270663 24.0
endloop
endfacet
facet normal 0.866025403784438 -0.500000000000002 0.0
outer loop
vertex 3.0 5.19615242270663 0.0
vertex 2.25 3.89711431702997 24.0
vertex 2.25 3.89711431702997 0.0
endloop
endfacet
facet normal 0.866025403784438 -0.500000000000002 0.0
outer loop
vertex 2.25 3.89711431702997 24.0
vertex 3.0 5.19615242270663 0.0
vertex 3.0 5.19615242270663 24.0
endloop
endfacet
facet normal -0.38268343236509 -0.923879532511287 -0.0
outer loop
vertex 2.25 3.89711431702997 24.0
vertex 1.16468570296134 4.34666621830081 0.0
vertex 2.25 3.89711431702997 0.0
endloop
endfacet
facet normal -0.38268343236509 -0.923879532511287 -0.0
outer loop
vertex 1.16468570296134 4.34666621830081 0.0
vertex 2.25 3.89711431702997 24.0
vertex 1.16468570296134 4.34666621830081 24.0
endloop
endfacet
facet normal -0.965925826289068 0.258819045102523 0.0
outer loop
vertex 1.55291427061513 5.79555495773441 24.0
vertex 1.16468570296134 4.34666621830081 0.0
vertex 1.16468570296134 4.34666621830081 24.0
endloop
endfacet
facet normal -0.965925826289068 0.258819045102523 0.0
outer loop
vertex 1.16468570296134 4.34666621830081 0.0
vertex 1.55291427061513 5.79555495773441 24.0
vertex 1.55291427061513 5.79555495773441 0.0
endloop
endfacet
facet normal -0.130526192220052 -0.99144486137381 -0.0
outer loop
vertex 1.55291427061513 5.79555495773441 24.0
vertex 1.10218211923262e-15 6.0 0.0
vertex 1.55291427061513 5.79555495773441 0.0
endloop
endfacet
facet normal -0.130526192220052 -0.99144486137381 -0.0
outer loop
vertex 1.10218211923262e-15 6.0 0.0
vertex 1.55291427061513 5.79555495773441 24.0
vertex 1.10218211923262e-15 6.0 24.0
endloop
endfacet
facet normal 1.0 -5.51091059616309e-16 0.0
outer loop
vertex 1.10218211923262e-15 6.0 0.0
vertex 2.75545529808154e-16 4.5 24.0
vertex 2.75545529808154e-16 4.5 0.0
endloop
endfacet
facet normal 1.0 -5.51091059616309e-16 0.0
outer loop
vertex 2.75545529808154e-16 4.5 24.0
vertex 1.10218211923262e-15 6.0 0.0
vertex 1.10218211923262e-15 6.0 24.0
endloop
endfacet
facet normal 0.130526192220052 -0.99144486137381 0.0
outer loop
vertex 2.75545529808154e-16 4.5 24.0
vertex -1.16468570296134 4.34666621830081 0.0
vertex 2.75545529808154e-16 4.5 0.0
endloop
endfacet
facet normal 0.130526192220052 -0.99144486137381 0.0
outer loop
vertex -1.16468570296134 4.34666621830081 0.0
vertex 2.75545529808154e-16 4.5 24.0
vertex -1.16468570296134 4.34666621830081 24.0
endloop
endfacet
facet normal -0.965925826289069 -0.258819045102519 -0.0
outer loop
vertex -1.55291427061512 5.79555495773441 24.0
vertex -1.16468570296134 4.34666621830081 0.0
vertex -1.16468570296134 4.34666621830081 24.0
endloop
endfacet
facet normal -0.965925826289069 -0.258819045102519 -0.0
outer loop
vertex -1.16468570296134 4.34666621830081 0.0
vertex -1.55291427061512 5.79555495773441 24.0
vertex -1.55291427061512 5.79555495773441 0.0
endloop
endfacet
facet normal 0.382683432365089 -0.923879532511287 0.0
outer loop
vertex -1.55291427061512 5.79555495773441 24.0
vertex -3.0 5.19615242270663 0.0
vertex -1.55291427061512 5.79555495773441 0.0
endloop
endfacet
facet normal 0.382683432365089 -0.923879532511287 0.0
outer loop
vertex -3.0 5.19615242270663 0.0
vertex -1.55291427061512 5.79555495773441 24.0
vertex -3.0 5.19615242270663 24.0
endloop
endfacet
facet normal 0.86602540378444 0.499999999999998 0.0
outer loop
vertex -3.0 5.19615242270663 0.0
vertex -2.25 3.89711431702997 24.0
vertex -2.25 3.89711431702997 0.0
endloop
endfacet
facet normal 0.86602540378444 0.499999999999998 0.0
outer loop
vertex -2.25 3.89711431702997 24.0
vertex -3.0 5.19615242270663 0.0
vertex -3.0 5.19615242270663 24.0
endloop
endfacet
facet normal 0.60876142900872 -0.793353340291235 0.0
outer loop
vertex -2.25 3.89711431702997 24.0
vertex -3.18198051533946 3.18198051533946 0.0
vertex -2.25 3.89711431702997 0.0
endloop
endfacet
facet normal 0.60876142900872 -0.793353340291235 0.0
outer loop
vertex -3.18198051533946 3.18198051533946 0.0
vertex -2.25 3.89711431702997 24.0
vertex -3.18198051533946 3.18198051533946 24.0
endloop
endfacet
facet normal -0.707106781186548 -0.707106781186547 -0.0
outer loop
vertex -4.24264068711928 4.24264068711928 24.0
vertex -3.18198051533946 3.18198051533946 0.0
vertex -3.18198051533946 3.18198051533946 24.0
endloop
endfacet
facet normal -0.707106781186548 -0.707106781186547 -0.0
outer loop
vertex -3.18198051533946 3.18198051533946 0.0
vertex -4.24264068711928 4.24264068711928 24.0
vertex -4.24264068711928 4.24264068711928 0.0
endloop
endfacet
facet normal 0.793353340291235 -0.608761429008721 0.0
outer loop
vertex -4.24264068711928 4.24264068711928 0.0
vertex -5.19615242270663 3.0 24.0
vertex -5.19615242270663 3.0 0.0
endloop
endfacet
facet normal 0.793353340291235 -0.608761429008721 0.0
outer loop
vertex -5.19615242270663 3.0 24.0
vertex -4.24264068711928 4.24264068711928 0.0
vertex -4.24264068711928 4.24264068711928 24.0
endloop
endfacet
facet normal 0.500000000000001 0.866025403784438 0.0
outer loop
vertex -5.19615242270663 3.0 24.0
vertex -3.89711431702997 2.25 0.0
vertex -5.19615242270663 3.0 0.0
endloop
endfacet
facet normal 0.500000000000001 0.866025403784438 0.0
outer loop
vertex -3.89711431702997 2.25 0.0
vertex -5.19615242270663 3.0 24.0
vertex -3.89711431702997 2.25 24.0
endloop
endfacet
facet normal 0.923879532511287 -0.38268343236509 0.0
outer loop
vertex -3.89711431702997 2.25 0.0
vertex -4.34666621830081 1.16468570296134 24.0
vertex -4.34666621830081 1.16468570296134 0.0
endloop
endfacet
facet normal 0.923879532511287 -0.38268343236509 0.0
outer loop
vertex -4.34666621830081 1.16468570296134 24.0
vertex -3.89711431702997 2.25 0.0
vertex -3.89711431702997 2.25 24.0
endloop
endfacet
facet normal -0.258819045102523 -0.965925826289068 -0.0
outer loop
vertex -4.34666621830081 1.16468570296134 24.0
vertex -5.79555495773441 1.55291427061513 0.0
vertex -4.34666621830081 1.16468570296134 0.0
endloop
endfacet
facet normal -0.258819045102523 -0.965925826289068 -0.0
outer loop
vertex -5.79555495773441 1.55291427061513 0.0
vertex -4.34666621830081 1.16468570296134 24.0
vertex -5.79555495773441 1.55291427061513 24.0
endloop
endfacet
facet normal 0.99144486137381 -0.130526192220052 0.0
outer loop
vertex -5.79555495773441 1.55291427061513 0.0
vertex -6.0 0.0 24.0
vertex -6.0 0.0 0.0
endloop
endfacet
facet normal 0.99144486137381 -0.130526192220052 0.0
outer loop
vertex -6.0 0.0 24.0
vertex -5.79555495773441 1.55291427061513 0.0
vertex -5.79555495773441 1.55291427061513 24.0
endloop
endfacet
facet normal -3.67394039744206e-16 1.0 0.0
outer loop
vertex -6.0 0.0 24.0
vertex -4.5 5.51091059616309e-16 0.0
vertex -6.0 0.0 0.0
endloop
endfacet
facet normal -3.67394039744206e-16 1.0 0.0
outer loop
vertex -4.5 5.51091059616309e-16 0.0
vertex -6.0 0.0 24.0
vertex -4.5 5.51091059616309e-16 24.0
endloop
endfacet
facet normal 0.99144486137381 0.130526192220051 0.0
outer loop
vertex -4.5 5.51091059616309e-16 0.0
vertex -4.34666621830081 -1.16468570296134 24.0
vertex -4.34666621830081 -1.16468570296134 0.0
endloop
endfacet
facet normal 0.99144486137381 0.130526192220051 0.0
outer loop
vertex -4.34666621830081 -1.16468570296134 24.0
vertex -4.5 5.51091059616309e-16 0.0
vertex -4.5 5.51091059616309e-16 24.0
endloop
endfacet
facet normal 0.258819045102522 -0.965925826289068 0.0
outer loop
vertex -4.34666621830081 -1.16468570296134 24.0
vertex -5.79555495773441 -1.55291427061512 0.0
vertex -4.34666621830081 -1.16468570296134 0.0
endloop
endfacet
facet normal 0.258819045102522 -0.965925826289068 0.0
outer loop
vertex -5.79555495773441 -1.55291427061512 0.0
vertex -4.34666621830081 -1.16468570296134 24.0
vertex -5.79555495773441 -1.55291427061512 24.0
endloop
endfacet
endsolid model
