solid Unbenannt
facet normal -0.0 -0.0 1.0
  outer loop
    vertex -5.645255100913158 21.777868656468968 0.0
    vertex -5.1156960127073345 31.092037435501307 0.0
    vertex -5.99359234816532 26.46981193427634 0.0
  endloop
endfacet
facet normal -0.0 -0.0 1.0
  outer loop
    vertex -5.1156960127073345 31.092037435501307 0.0
    vertex -5.645255100913158 21.777868656468968 0.0
    vertex -4.094422878696557 17.33595578265889 0.0
  endloop
endfacet
facet normal -0.0 -0.0 1.0
  outer loop
    vertex -5.1156960127073345 31.092037435501307 0.0
    vertex -4.094422878696557 17.33595578265889 0.0
    vertex -3.0713932790083636 35.32954813082421 0.0
  endloop
endfacet
facet normal -0.0 -0.0 1.0
  outer loop
    vertex -3.0713932790083636 35.32954813082421 0.0
    vertex -4.094422878696557 17.33595578265889 0.0
    vertex -2.3740625550137926 23.190939772583775 0.0
  endloop
endfacet
facet normal -0.0 -0.0 1.0
  outer loop
    vertex -2.3740625550137926 23.190939772583775 0.0
    vertex -4.094422878696557 17.33595578265889 0.0
    vertex -1.4467823345881485 13.446782334588152 0.0
  endloop
endfacet
facet normal -0.0 -0.0 1.0
  outer loop
    vertex -3.0713932790083636 35.32954813082421 0.0
    vertex -2.3740625550137926 23.190939772583775 0.0
    vertex -2.468133268382049 26.98808688863859 0.0
  endloop
endfacet
facet normal -0.0 -0.0 1.0
  outer loop
    vertex -2.3740625550137926 23.190939772583775 0.0
    vertex -1.4467823345881485 13.446782334588152 0.0
    vertex -1.3004232327828575 19.547524599173457 0.0
  endloop
endfacet
facet normal -0.0 -0.0 1.0
  outer loop
    vertex -1.3004232327828575 19.547524599173457 0.0
    vertex -1.4467823345881485 13.446782334588152 0.0
    vertex 0.23205059218461518 12.0 0.0
  endloop
endfacet
facet normal -0.0 -0.0 1.0
  outer loop
    vertex -1.3004232327828575 19.547524599173457 0.0
    vertex 0.23205059218461518 12.0 0.0
    vertex 0.6796179527735853 16.306134091447294 0.0
  endloop
endfacet
facet normal -0.0 -0.0 1.0
  outer loop
    vertex 0.0 0.0 0.0
    vertex 3.0 3.15 0.0
    vertex 0.0 12.0 0.0
  endloop
endfacet
facet normal -0.0 -0.0 1.0
  outer loop
    vertex 3.0 3.15 0.0
    vertex 0.0 0.0 0.0
    vertex 6.200000000000001 0.0 0.0
  endloop
endfacet
facet normal -0.0 -0.0 1.0
  outer loop
    vertex 0.0 12.0 0.0
    vertex 3.0 3.15 0.0
    vertex 0.23205059218461518 12.0 0.0
  endloop
endfacet
facet normal -0.0 -0.0 1.0
  outer loop
    vertex 0.23205059218461518 12.0 0.0
    vertex 3.0 3.15 0.0
    vertex 0.6796179527735853 16.306134091447294 0.0
  endloop
endfacet
facet normal -0.0 -0.0 1.0
  outer loop
    vertex 3.0 3.15 0.0
    vertex 6.200000000000001 0.0 0.0
    vertex 6.200000000000001 3.15 0.0
  endloop
endfacet
facet normal -0.0 -0.0 1.0
  outer loop
    vertex 24.0 0.0 0.0
    vertex 17.8 3.15 0.0
    vertex 17.8 0.0 0.0
  endloop
endfacet
facet normal -0.0 -0.0 1.0
  outer loop
    vertex 17.8 3.15 0.0
    vertex 24.0 0.0 0.0
    vertex 21.0 3.15 0.0
  endloop
endfacet
facet normal -0.0 -0.0 1.0
  outer loop
    vertex 21.0 3.15 0.0
    vertex 24.0 0.0 0.0
    vertex 21.0 6.15 0.0
  endloop
endfacet
facet normal -0.0 -0.0 1.0
  outer loop
    vertex 21.0 6.15 0.0
    vertex 24.0 0.0 0.0
    vertex 21.140648243140852 14.126400287361731 0.0
  endloop
endfacet
facet normal -0.0 -0.0 1.0
  outer loop
    vertex 21.140648243140852 14.126400287361731 0.0
    vertex 24.0 0.0 0.0
    vertex 23.759118678732417 16.877906801620796 0.0
  endloop
endfacet
facet normal -0.0 -0.0 1.0
  outer loop
    vertex 23.759118678732417 16.877906801620796 0.0
    vertex 24.0 0.0 0.0
    vertex 24.0 12.0 0.0
  endloop
endfacet
facet normal -0.0 -0.0 1.0
  outer loop
    vertex 23.759118678732417 16.877906801620796 0.0
    vertex 24.0 12.0 0.0
    vertex 25.576224609230792 20.213368022715215 0.0
  endloop
endfacet
facet normal -0.0 -0.0 1.0
  outer loop
    vertex 25.576224609230792 20.213368022715215 0.0
    vertex 24.0 12.0 0.0
    vertex 27.07139327900837 15.564016538352096 0.0
  endloop
endfacet
facet normal -0.0 -0.0 1.0
  outer loop
    vertex 25.576224609230792 20.213368022715215 0.0
    vertex 27.07139327900837 15.564016538352096 0.0
    vertex 26.468133268382054 23.905477780537705 0.0
  endloop
endfacet
facet normal -0.0 -0.0 1.0
  outer loop
    vertex 23.32038204722641 34.587430577729 0.0
    vertex 23.08086386748374 39.4856803027514 0.0
    vertex 20.937773648040515 36.85483922115009 0.0
  endloop
endfacet
facet normal -0.0 -0.0 1.0
  outer loop
    vertex 23.08086386748374 39.4856803027514 0.0
    vertex 23.32038204722641 34.587430577729 0.0
    vertex 25.446782334588146 37.44678233458815 0.0
  endloop
endfacet
facet normal -0.0 -0.0 1.0
  outer loop
    vertex 25.446782334588146 37.44678233458815 0.0
    vertex 23.32038204722641 34.587430577729 0.0
    vertex 25.300423232782855 31.346040070002843 0.0
  endloop
endfacet
facet normal -0.0 -0.0 1.0
  outer loop
    vertex 25.446782334588146 37.44678233458815 0.0
    vertex 25.300423232782855 31.346040070002843 0.0
    vertex 26.374062555013786 27.70262489659252 0.0
  endloop
endfacet
facet normal -0.0 -0.0 1.0
  outer loop
    vertex 25.446782334588146 37.44678233458815 0.0
    vertex 26.374062555013786 27.70262489659252 0.0
    vertex 28.09442287869655 33.55760888651741 0.0
  endloop
endfacet
facet normal -0.0 -0.0 1.0
  outer loop
    vertex 28.09442287869655 33.55760888651741 0.0
    vertex 26.374062555013786 27.70262489659252 0.0
    vertex 26.468133268382054 23.905477780537705 0.0
  endloop
endfacet
facet normal -0.0 -0.0 1.0
  outer loop
    vertex 28.09442287869655 33.55760888651741 0.0
    vertex 26.468133268382054 23.905477780537705 0.0
    vertex 27.07139327900837 15.564016538352096 0.0
  endloop
endfacet
facet normal -0.0 -0.0 1.0
  outer loop
    vertex 28.09442287869655 33.55760888651741 0.0
    vertex 27.07139327900837 15.564016538352096 0.0
    vertex 29.11569601270734 19.80152723367499 0.0
  endloop
endfacet
facet normal -0.0 -0.0 1.0
  outer loop
    vertex 28.09442287869655 33.55760888651741 0.0
    vertex 29.11569601270734 19.80152723367499 0.0
    vertex 29.645255100913158 29.115696012707332 0.0
  endloop
endfacet
facet normal -0.0 -0.0 1.0
  outer loop
    vertex 29.645255100913158 29.115696012707332 0.0
    vertex 29.11569601270734 19.80152723367499 0.0
    vertex 29.993592348165322 24.42375273489996 0.0
  endloop
endfacet
facet normal -0.0 -0.0 1.0
  outer loop
    vertex 0.6796179527735853 16.306134091447294 0.0
    vertex 3.0 6.15 0.0
    vertex 3.431124467032645 13.687663655855733 0.0
  endloop
endfacet
facet normal -0.0 -0.0 1.0
  outer loop
    vertex 3.0 6.15 0.0
    vertex 0.6796179527735853 16.306134091447294 0.0
    vertex 3.0 3.15 0.0
  endloop
endfacet
facet normal -0.0 -0.0 1.0
  outer loop
    vertex 3.431124467032645 13.687663655855733 0.0
    vertex 3.0 6.15 0.0
    vertex 6.766585688127063 11.870557725357363 0.0
  endloop
endfacet
facet normal -0.0 -0.0 1.0
  outer loop
    vertex 6.766585688127063 11.870557725357363 0.0
    vertex 3.0 6.15 0.0
    vertex 21.0 6.15 0.0
  endloop
endfacet
facet normal -0.0 -0.0 1.0
  outer loop
    vertex 3.431124467032645 13.687663655855733 0.0
    vertex 6.766585688127063 11.870557725357363 0.0
    vertex 6.528982761300251 12.0 0.0
  endloop
endfacet
facet normal -0.0 -0.0 1.0
  outer loop
    vertex 6.766585688127063 11.870557725357363 0.0
    vertex 21.0 6.15 0.0
    vertex 10.458695445949548 10.978649066206101 0.0
  endloop
endfacet
facet normal -0.0 -0.0 1.0
  outer loop
    vertex 10.458695445949548 10.978649066206101 0.0
    vertex 21.0 6.15 0.0
    vertex 12.0 11.016833422641547 0.0
  endloop
endfacet
facet normal -0.0 -0.0 1.0
  outer loop
    vertex 12.0 11.016833422641547 0.0
    vertex 21.0 6.15 0.0
    vertex 14.255842562004378 11.072719779574355 0.0
  endloop
endfacet
facet normal -0.0 -0.0 1.0
  outer loop
    vertex 14.255842562004378 11.072719779574355 0.0
    vertex 21.0 6.15 0.0
    vertex 17.402585378839625 12.0 0.0
  endloop
endfacet
facet normal -0.0 -0.0 1.0
  outer loop
    vertex 17.402585378839625 12.0 0.0
    vertex 21.0 6.15 0.0
    vertex 17.89925773541469 12.146359101805288 0.0
  endloop
endfacet
facet normal -0.0 -0.0 1.0
  outer loop
    vertex 17.89925773541469 12.146359101805288 0.0
    vertex 21.0 6.15 0.0
    vertex 21.140648243140852 14.126400287361731 0.0
  endloop
endfacet
facet normal -0.0 -0.0 1.0
  outer loop
    vertex -2.468133268382049 26.98808688863859 0.0
    vertex 2.8199664825478975e-15 38.89356466917629 0.0
    vertex -3.0713932790083636 35.32954813082421 0.0
  endloop
endfacet
facet normal -0.0 -0.0 1.0
  outer loop
    vertex 2.8199664825478975e-15 38.89356466917629 0.0
    vertex -2.468133268382049 26.98808688863859 0.0
    vertex -1.5762246092307863 30.68019664646108 0.0
  endloop
endfacet
facet normal -0.0 -0.0 1.0
  outer loop
    vertex 2.8199664825478975e-15 38.89356466917629 0.0
    vertex -1.5762246092307863 30.68019664646108 0.0
    vertex 0.24088132126758724 34.015657867555504 0.0
  endloop
endfacet
facet normal -0.0 -0.0 1.0
  outer loop
    vertex 2.8199664825478975e-15 38.89356466917629 0.0
    vertex 0.24088132126758724 34.015657867555504 0.0
    vertex 1.295125740508155 39.77525006224839 0.0
  endloop
endfacet
facet normal -0.0 -0.0 1.0
  outer loop
    vertex 1.295125740508155 39.77525006224839 0.0
    vertex 0.24088132126758724 34.015657867555504 0.0
    vertex 2.8593517568591436 36.76716438181456 0.0
  endloop
endfacet
facet normal -0.0 -0.0 1.0
  outer loop
    vertex 1.295125740508155 39.77525006224839 0.0
    vertex 2.8593517568591436 36.76716438181456 0.0
    vertex 3.436445124481645 37.11968859421055 0.0
  endloop
endfacet
facet normal 0.0 0.0 -1.0
  outer loop
    vertex 2.8199664825478975e-15 38.89356466917629 -45.0
    vertex -2.468133268382049 26.98808688863859 -45.0
    vertex -3.0713932790083636 35.32954813082421 -45.0
  endloop
endfacet
facet normal 0.0 0.0 -1.0
  outer loop
    vertex -2.468133268382049 26.98808688863859 -45.0
    vertex 2.8199664825478975e-15 38.89356466917629 -45.0
    vertex -1.5762246092307863 30.68019664646108 -45.0
  endloop
endfacet
facet normal 0.0 0.0 -1.0
  outer loop
    vertex -1.5762246092307863 30.68019664646108 -45.0
    vertex 2.8199664825478975e-15 38.89356466917629 -45.0
    vertex 0.24088132126758724 34.015657867555504 -45.0
  endloop
endfacet
facet normal 0.0 0.0 -1.0
  outer loop
    vertex 0.24088132126758724 34.015657867555504 -45.0
    vertex 2.8199664825478975e-15 38.89356466917629 -45.0
    vertex 1.295125740508155 39.77525006224839 -45.0
  endloop
endfacet
facet normal 0.0 0.0 -1.0
  outer loop
    vertex 0.24088132126758724 34.015657867555504 -45.0
    vertex 1.295125740508155 39.77525006224839 -45.0
    vertex 2.8593517568591436 36.76716438181456 -45.0
  endloop
endfacet
facet normal 0.0 0.0 -1.0
  outer loop
    vertex 2.8593517568591436 36.76716438181456 -45.0
    vertex 1.295125740508155 39.77525006224839 -45.0
    vertex 3.436445124481645 37.11968859421055 -45.0
  endloop
endfacet
facet normal 0.0 0.0 -1.0
  outer loop
    vertex -5.1156960127073345 31.092037435501307 -45.0
    vertex -5.645255100913158 21.777868656468968 -45.0
    vertex -5.99359234816532 26.46981193427634 -45.0
  endloop
endfacet
facet normal 0.0 0.0 -1.0
  outer loop
    vertex -5.645255100913158 21.777868656468968 -45.0
    vertex -5.1156960127073345 31.092037435501307 -45.0
    vertex -4.094422878696557 17.33595578265889 -45.0
  endloop
endfacet
facet normal 0.0 0.0 -1.0
  outer loop
    vertex -4.094422878696557 17.33595578265889 -45.0
    vertex -5.1156960127073345 31.092037435501307 -45.0
    vertex -3.0713932790083636 35.32954813082421 -45.0
  endloop
endfacet
facet normal 0.0 0.0 -1.0
  outer loop
    vertex -4.094422878696557 17.33595578265889 -45.0
    vertex -3.0713932790083636 35.32954813082421 -45.0
    vertex -2.3740625550137926 23.190939772583775 -45.0
  endloop
endfacet
facet normal 0.0 0.0 -1.0
  outer loop
    vertex -4.094422878696557 17.33595578265889 -45.0
    vertex -2.3740625550137926 23.190939772583775 -45.0
    vertex -1.4467823345881485 13.446782334588152 -45.0
  endloop
endfacet
facet normal 0.0 0.0 -1.0
  outer loop
    vertex -2.3740625550137926 23.190939772583775 -45.0
    vertex -3.0713932790083636 35.32954813082421 -45.0
    vertex -2.468133268382049 26.98808688863859 -45.0
  endloop
endfacet
facet normal 0.0 0.0 -1.0
  outer loop
    vertex -1.4467823345881485 13.446782334588152 -45.0
    vertex -2.3740625550137926 23.190939772583775 -45.0
    vertex -1.3004232327828575 19.547524599173457 -45.0
  endloop
endfacet
facet normal 0.0 0.0 -1.0
  outer loop
    vertex -1.4467823345881485 13.446782334588152 -45.0
    vertex -1.3004232327828575 19.547524599173457 -45.0
    vertex 0.23205059218461518 12.0 -45.0
  endloop
endfacet
facet normal 0.0 0.0 -1.0
  outer loop
    vertex 0.23205059218461518 12.0 -45.0
    vertex -1.3004232327828575 19.547524599173457 -45.0
    vertex 0.6796179527735853 16.306134091447294 -45.0
  endloop
endfacet
facet normal 0.0 0.0 -1.0
  outer loop
    vertex 0.23205059218461518 12.0 -45.0
    vertex 0.0 0.0 -45.0
    vertex 0.0 12.0 -45.0
  endloop
endfacet
facet normal 0.0 0.0 -1.0
  outer loop
    vertex 0.0 0.0 -45.0
    vertex 0.23205059218461518 12.0 -45.0
    vertex 3.0 3.15 -45.0
  endloop
endfacet
facet normal 0.0 0.0 -1.0
  outer loop
    vertex 0.0 0.0 -45.0
    vertex 3.0 3.15 -45.0
    vertex 6.200000000000001 0.0 -45.0
  endloop
endfacet
facet normal 0.0 0.0 -1.0
  outer loop
    vertex 3.0 3.15 -45.0
    vertex 0.23205059218461518 12.0 -45.0
    vertex 0.6796179527735853 16.306134091447294 -45.0
  endloop
endfacet
facet normal 0.0 0.0 -1.0
  outer loop
    vertex 3.0 3.15 -45.0
    vertex 0.6796179527735853 16.306134091447294 -45.0
    vertex 3.0 6.15 -45.0
  endloop
endfacet
facet normal 0.0 0.0 -1.0
  outer loop
    vertex 6.200000000000001 0.0 -45.0
    vertex 3.0 3.15 -45.0
    vertex 6.200000000000001 3.15 -45.0
  endloop
endfacet
facet normal 0.0 0.0 -1.0
  outer loop
    vertex 3.431124467032645 13.687663655855733 -45.0
    vertex 3.0 6.15 -45.0
    vertex 0.6796179527735853 16.306134091447294 -45.0
  endloop
endfacet
facet normal 0.0 0.0 -1.0
  outer loop
    vertex 3.0 6.15 -45.0
    vertex 3.431124467032645 13.687663655855733 -45.0
    vertex 6.766585688127063 11.870557725357363 -45.0
  endloop
endfacet
facet normal 0.0 0.0 -1.0
  outer loop
    vertex 3.0 6.15 -45.0
    vertex 6.766585688127063 11.870557725357363 -45.0
    vertex 21.0 6.15 -45.0
  endloop
endfacet
facet normal 0.0 0.0 -1.0
  outer loop
    vertex 6.766585688127063 11.870557725357363 -45.0
    vertex 3.431124467032645 13.687663655855733 -45.0
    vertex 6.528982761300251 12.0 -45.0
  endloop
endfacet
facet normal 0.0 0.0 -1.0
  outer loop
    vertex 21.0 6.15 -45.0
    vertex 6.766585688127063 11.870557725357363 -45.0
    vertex 10.458695445949548 10.978649066206101 -45.0
  endloop
endfacet
facet normal 0.0 0.0 -1.0
  outer loop
    vertex 21.0 6.15 -45.0
    vertex 10.458695445949548 10.978649066206101 -45.0
    vertex 12.0 11.016833422641547 -45.0
  endloop
endfacet
facet normal 0.0 0.0 -1.0
  outer loop
    vertex 21.0 6.15 -45.0
    vertex 12.0 11.016833422641547 -45.0
    vertex 14.255842562004378 11.072719779574355 -45.0
  endloop
endfacet
facet normal 0.0 0.0 -1.0
  outer loop
    vertex 21.0 6.15 -45.0
    vertex 14.255842562004378 11.072719779574355 -45.0
    vertex 17.402585378839625 12.0 -45.0
  endloop
endfacet
facet normal 0.0 0.0 -1.0
  outer loop
    vertex 21.0 6.15 -45.0
    vertex 17.402585378839625 12.0 -45.0
    vertex 17.89925773541469 12.146359101805288 -45.0
  endloop
endfacet
facet normal 0.0 0.0 -1.0
  outer loop
    vertex 21.0 6.15 -45.0
    vertex 17.89925773541469 12.146359101805288 -45.0
    vertex 21.140648243140852 14.126400287361731 -45.0
  endloop
endfacet
facet normal 0.0 0.0 -1.0
  outer loop
    vertex 21.0 6.15 -45.0
    vertex 21.140648243140852 14.126400287361731 -45.0
    vertex 21.0 3.15 -45.0
  endloop
endfacet
facet normal 0.0 0.0 -1.0
  outer loop
    vertex 23.08086386748374 39.4856803027514 -45.0
    vertex 23.32038204722641 34.587430577729 -45.0
    vertex 20.937773648040515 36.85483922115009 -45.0
  endloop
endfacet
facet normal 0.0 0.0 -1.0
  outer loop
    vertex 23.32038204722641 34.587430577729 -45.0
    vertex 23.08086386748374 39.4856803027514 -45.0
    vertex 25.446782334588146 37.44678233458815 -45.0
  endloop
endfacet
facet normal 0.0 0.0 -1.0
  outer loop
    vertex 23.32038204722641 34.587430577729 -45.0
    vertex 25.446782334588146 37.44678233458815 -45.0
    vertex 25.300423232782855 31.346040070002843 -45.0
  endloop
endfacet
facet normal 0.0 0.0 -1.0
  outer loop
    vertex 25.300423232782855 31.346040070002843 -45.0
    vertex 25.446782334588146 37.44678233458815 -45.0
    vertex 26.374062555013786 27.70262489659252 -45.0
  endloop
endfacet
facet normal 0.0 0.0 -1.0
  outer loop
    vertex 26.374062555013786 27.70262489659252 -45.0
    vertex 25.446782334588146 37.44678233458815 -45.0
    vertex 28.09442287869655 33.55760888651741 -45.0
  endloop
endfacet
facet normal 0.0 0.0 -1.0
  outer loop
    vertex 26.374062555013786 27.70262489659252 -45.0
    vertex 28.09442287869655 33.55760888651741 -45.0
    vertex 26.468133268382054 23.905477780537705 -45.0
  endloop
endfacet
facet normal 0.0 0.0 -1.0
  outer loop
    vertex 26.468133268382054 23.905477780537705 -45.0
    vertex 28.09442287869655 33.55760888651741 -45.0
    vertex 27.07139327900837 15.564016538352096 -45.0
  endloop
endfacet
facet normal 0.0 0.0 -1.0
  outer loop
    vertex 27.07139327900837 15.564016538352096 -45.0
    vertex 28.09442287869655 33.55760888651741 -45.0
    vertex 29.11569601270734 19.80152723367499 -45.0
  endloop
endfacet
facet normal 0.0 0.0 -1.0
  outer loop
    vertex 29.11569601270734 19.80152723367499 -45.0
    vertex 28.09442287869655 33.55760888651741 -45.0
    vertex 29.645255100913158 29.115696012707332 -45.0
  endloop
endfacet
facet normal 0.0 0.0 -1.0
  outer loop
    vertex 29.11569601270734 19.80152723367499 -45.0
    vertex 29.645255100913158 29.115696012707332 -45.0
    vertex 29.993592348165322 24.42375273489996 -45.0
  endloop
endfacet
facet normal 0.0 0.0 -1.0
  outer loop
    vertex 25.576224609230792 20.213368022715215 -45.0
    vertex 24.0 12.0 -45.0
    vertex 23.759118678732417 16.877906801620796 -45.0
  endloop
endfacet
facet normal 0.0 0.0 -1.0
  outer loop
    vertex 24.0 12.0 -45.0
    vertex 25.576224609230792 20.213368022715215 -45.0
    vertex 27.07139327900837 15.564016538352096 -45.0
  endloop
endfacet
facet normal 0.0 0.0 -1.0
  outer loop
    vertex 27.07139327900837 15.564016538352096 -45.0
    vertex 25.576224609230792 20.213368022715215 -45.0
    vertex 26.468133268382054 23.905477780537705 -45.0
  endloop
endfacet
facet normal 0.0 0.0 -1.0
  outer loop
    vertex 21.0 3.15 -45.0
    vertex 17.8 0.0 -45.0
    vertex 17.8 3.15 -45.0
  endloop
endfacet
facet normal 0.0 0.0 -1.0
  outer loop
    vertex 17.8 0.0 -45.0
    vertex 21.0 3.15 -45.0
    vertex 24.0 0.0 -45.0
  endloop
endfacet
facet normal 0.0 0.0 -1.0
  outer loop
    vertex 24.0 0.0 -45.0
    vertex 21.0 3.15 -45.0
    vertex 21.140648243140852 14.126400287361731 -45.0
  endloop
endfacet
facet normal 0.0 0.0 -1.0
  outer loop
    vertex 24.0 0.0 -45.0
    vertex 21.140648243140852 14.126400287361731 -45.0
    vertex 23.759118678732417 16.877906801620796 -45.0
  endloop
endfacet
facet normal 0.0 0.0 -1.0
  outer loop
    vertex 24.0 0.0 -45.0
    vertex 23.759118678732417 16.877906801620796 -45.0
    vertex 24.0 12.0 -45.0
  endloop
endfacet
facet normal -0.6658287888712701 0.7461045663378678 0.0
  outer loop
    vertex 2.8199664825478975e-15 38.89356466917629 0.0
    vertex 1.295125740508155 39.77525006224839 -45.0
    vertex 2.8199664825478975e-15 38.89356466917629 -45.0
  endloop
endfacet
facet normal -0.5627463432390944 0.8266296348250693 0.0
  outer loop
    vertex 1.295125740508155 39.77525006224839 -45.0
    vertex 2.8199664825478975e-15 38.89356466917629 0.0
    vertex 1.295125740508155 39.77525006224839 0.0
  endloop
endfacet
facet normal 0.7784506314865808 0.6277058342393702 0.0
  outer loop
    vertex 1.295125740508155 39.77525006224839 -45.0
    vertex 3.436445124481645 37.11968859421055 0.0
    vertex 3.436445124481645 37.11968859421055 -45.0
  endloop
endfacet
facet normal 0.7784506314865808 0.6277058342393702 0.0
  outer loop
    vertex 3.436445124481645 37.11968859421055 0.0
    vertex 1.295125740508155 39.77525006224839 -45.0
    vertex 1.295125740508155 39.77525006224839 0.0
  endloop
endfacet
facet normal 0.5212950080540792 -0.8533765373959478 0.0
  outer loop
    vertex 3.436445124481645 37.11968859421055 0.0
    vertex 2.8593517568591436 36.76716438181456 -45.0
    vertex 3.436445124481645 37.11968859421055 -45.0
  endloop
endfacet
facet normal 0.6282232469512613 -0.778033130393568 0.0
  outer loop
    vertex 2.8593517568591436 36.76716438181456 -45.0
    vertex 3.436445124481645 37.11968859421055 0.0
    vertex 2.8593517568591436 36.76716438181456 0.0
  endloop
endfacet
facet normal 0.6282232469512613 -0.778033130393568 0.0
  outer loop
    vertex 2.8593517568591436 36.76716438181456 -45.0
    vertex 0.24088132126758724 34.015657867555504 0.0
    vertex 0.24088132126758724 34.015657867555504 -45.0
  endloop
endfacet
facet normal 0.8081868507719868 -0.5889261534685468 0.0
  outer loop
    vertex 0.24088132126758724 34.015657867555504 0.0
    vertex 2.8593517568591436 36.76716438181456 -45.0
    vertex 2.8593517568591436 36.76716438181456 0.0
  endloop
endfacet
facet normal 0.8081868507719868 -0.5889261534685468 0.0
  outer loop
    vertex 0.24088132126758724 34.015657867555504 -45.0
    vertex -1.5762246092307863 30.68019664646108 0.0
    vertex -1.5762246092307863 30.68019664646108 -45.0
  endloop
endfacet
facet normal 0.9330738563045213 -0.3596848324311292 0.0
  outer loop
    vertex -1.5762246092307863 30.68019664646108 0.0
    vertex 0.24088132126758724 34.015657867555504 -45.0
    vertex 0.24088132126758724 34.015657867555504 0.0
  endloop
endfacet
facet normal 0.9330738563045213 -0.3596848324311292 0.0
  outer loop
    vertex -1.5762246092307863 30.68019664646108 -45.0
    vertex -2.468133268382049 26.98808688863859 0.0
    vertex -2.468133268382049 26.98808688863859 -45.0
  endloop
endfacet
facet normal 0.9943734205073571 -0.105931584470821 0.0
  outer loop
    vertex -2.468133268382049 26.98808688863859 0.0
    vertex -1.5762246092307863 30.68019664646108 -45.0
    vertex -1.5762246092307863 30.68019664646108 0.0
  endloop
endfacet
facet normal 0.9943734205073571 -0.105931584470821 0.0
  outer loop
    vertex -2.468133268382049 26.98808688863859 -45.0
    vertex -2.3740625550137926 23.190939772583775 0.0
    vertex -2.3740625550137926 23.190939772583775 -45.0
  endloop
endfacet
facet normal 0.9879080793823911 0.15504072591095341 0.0
  outer loop
    vertex -2.3740625550137926 23.190939772583775 0.0
    vertex -2.468133268382049 26.98808688863859 -45.0
    vertex -2.468133268382049 26.98808688863859 0.0
  endloop
endfacet
facet normal 0.9879080793823911 0.15504072591095341 0.0
  outer loop
    vertex -2.3740625550137926 23.190939772583775 -45.0
    vertex -1.3004232327828575 19.547524599173457 0.0
    vertex -1.3004232327828575 19.547524599173457 -45.0
  endloop
endfacet
facet normal 0.914118435242808 0.40544726703881034 0.0
  outer loop
    vertex -1.3004232327828575 19.547524599173457 0.0
    vertex -2.3740625550137926 23.190939772583775 -45.0
    vertex -2.3740625550137926 23.190939772583775 0.0
  endloop
endfacet
facet normal 0.914118435242808 0.40544726703881034 0.0
  outer loop
    vertex -1.3004232327828575 19.547524599173457 -45.0
    vertex 0.6796179527735853 16.306134091447294 0.0
    vertex 0.6796179527735853 16.306134091447294 -45.0
  endloop
endfacet
facet normal 0.778033130393568 0.6282232469512613 0.0
  outer loop
    vertex 0.6796179527735853 16.306134091447294 0.0
    vertex -1.3004232327828575 19.547524599173457 -45.0
    vertex -1.3004232327828575 19.547524599173457 0.0
  endloop
endfacet
facet normal 0.778033130393568 0.6282232469512613 0.0
  outer loop
    vertex 0.6796179527735853 16.306134091447294 0.0
    vertex 3.431124467032645 13.687663655855733 -45.0
    vertex 0.6796179527735853 16.306134091447294 -45.0
  endloop
endfacet
facet normal 0.5889261534685466 0.808186850771987 0.0
  outer loop
    vertex 3.431124467032645 13.687663655855733 -45.0
    vertex 0.6796179527735853 16.306134091447294 0.0
    vertex 3.431124467032645 13.687663655855733 0.0
  endloop
endfacet
facet normal 0.5889261534685466 0.808186850771987 0.0
  outer loop
    vertex 3.431124467032645 13.687663655855733 0.0
    vertex 6.528982761300251 12.0 -45.0
    vertex 3.431124467032645 13.687663655855733 -45.0
  endloop
endfacet
facet normal 0.47839825635145145 0.8781429885388203 0.0
  outer loop
    vertex 6.528982761300251 12.0 -45.0
    vertex 3.431124467032645 13.687663655855733 0.0
    vertex 6.528982761300251 12.0 0.0
  endloop
endfacet
facet normal 0.4783982563514535 0.8781429885388193 0.0
  outer loop
    vertex 6.528982761300251 12.0 0.0
    vertex 6.766585688127063 11.870557725357363 -45.0
    vertex 6.528982761300251 12.0 -45.0
  endloop
endfacet
facet normal 0.3596848324311303 0.9330738563045208 0.0
  outer loop
    vertex 6.766585688127063 11.870557725357363 -45.0
    vertex 6.528982761300251 12.0 0.0
    vertex 6.766585688127063 11.870557725357363 0.0
  endloop
endfacet
facet normal 0.3596848324311303 0.9330738563045208 0.0
  outer loop
    vertex 6.766585688127063 11.870557725357363 0.0
    vertex 10.458695445949548 10.978649066206101 -45.0
    vertex 6.766585688127063 11.870557725357363 -45.0
  endloop
endfacet
facet normal 0.1059315844708217 0.9943734205073571 0.0
  outer loop
    vertex 10.458695445949548 10.978649066206101 -45.0
    vertex 6.766585688127063 11.870557725357363 0.0
    vertex 10.458695445949548 10.978649066206101 0.0
  endloop
endfacet
facet normal 0.1059315844708217 0.9943734205073571 0.0
  outer loop
    vertex 10.458695445949548 10.978649066206101 0.0
    vertex 12.0 11.016833422641547 -45.0
    vertex 10.458695445949548 10.978649066206101 -45.0
  endloop
endfacet
facet normal -0.024766451142871036 0.9996932644055314 0.0
  outer loop
    vertex 12.0 11.016833422641547 -45.0
    vertex 10.458695445949548 10.978649066206101 0.0
    vertex 12.0 11.016833422641547 0.0
  endloop
endfacet
facet normal -0.024766451142871345 0.9996932644055315 0.0
  outer loop
    vertex 12.0 11.016833422641547 0.0
    vertex 14.255842562004378 11.072719779574355 -45.0
    vertex 12.0 11.016833422641547 -45.0
  endloop
endfacet
facet normal -0.15504072591095336 0.9879080793823911 0.0
  outer loop
    vertex 14.255842562004378 11.072719779574355 -45.0
    vertex 12.0 11.016833422641547 0.0
    vertex 14.255842562004378 11.072719779574355 0.0
  endloop
endfacet
facet normal -0.15504072591095336 0.9879080793823911 0.0
  outer loop
    vertex 14.255842562004378 11.072719779574355 0.0
    vertex 17.402585378839625 12.0 -45.0
    vertex 14.255842562004378 11.072719779574355 -45.0
  endloop
endfacet
facet normal -0.2826622108732888 0.9592195132211523 0.0
  outer loop
    vertex 17.402585378839625 12.0 -45.0
    vertex 14.255842562004378 11.072719779574355 0.0
    vertex 17.402585378839625 12.0 0.0
  endloop
endfacet
facet normal -0.2826622108732878 0.9592195132211526 0.0
  outer loop
    vertex 17.402585378839625 12.0 0.0
    vertex 17.89925773541469 12.146359101805288 -45.0
    vertex 17.402585378839625 12.0 -45.0
  endloop
endfacet
facet normal -0.4054472670388102 0.914118435242808 0.0
  outer loop
    vertex 17.89925773541469 12.146359101805288 -45.0
    vertex 17.402585378839625 12.0 0.0
    vertex 17.89925773541469 12.146359101805288 0.0
  endloop
endfacet
facet normal -0.4054472670388102 0.914118435242808 0.0
  outer loop
    vertex 17.89925773541469 12.146359101805288 0.0
    vertex 21.140648243140852 14.126400287361731 -45.0
    vertex 17.89925773541469 12.146359101805288 -45.0
  endloop
endfacet
facet normal -0.6282232469512613 0.778033130393568 0.0
  outer loop
    vertex 21.140648243140852 14.126400287361731 -45.0
    vertex 17.89925773541469 12.146359101805288 0.0
    vertex 21.140648243140852 14.126400287361731 0.0
  endloop
endfacet
facet normal -0.8081868507719867 0.5889261534685469 0.0
  outer loop
    vertex 23.759118678732417 16.877906801620796 0.0
    vertex 21.140648243140852 14.126400287361731 -45.0
    vertex 21.140648243140852 14.126400287361731 0.0
  endloop
endfacet
facet normal -0.6282232469512613 0.778033130393568 0.0
  outer loop
    vertex 21.140648243140852 14.126400287361731 -45.0
    vertex 23.759118678732417 16.877906801620796 0.0
    vertex 23.759118678732417 16.877906801620796 -45.0
  endloop
endfacet
facet normal -0.9330738563045212 0.3596848324311293 0.0
  outer loop
    vertex 25.576224609230792 20.213368022715215 0.0
    vertex 23.759118678732417 16.877906801620796 -45.0
    vertex 23.759118678732417 16.877906801620796 0.0
  endloop
endfacet
facet normal -0.8081868507719867 0.5889261534685469 0.0
  outer loop
    vertex 23.759118678732417 16.877906801620796 -45.0
    vertex 25.576224609230792 20.213368022715215 0.0
    vertex 25.576224609230792 20.213368022715215 -45.0
  endloop
endfacet
facet normal -0.9943734205073573 0.10593158447081989 0.0
  outer loop
    vertex 26.468133268382054 23.905477780537705 0.0
    vertex 25.576224609230792 20.213368022715215 -45.0
    vertex 25.576224609230792 20.213368022715215 0.0
  endloop
endfacet
facet normal -0.9330738563045212 0.3596848324311293 0.0
  outer loop
    vertex 25.576224609230792 20.213368022715215 -45.0
    vertex 26.468133268382054 23.905477780537705 0.0
    vertex 26.468133268382054 23.905477780537705 -45.0
  endloop
endfacet
facet normal -0.9879080793823909 -0.15504072591095408 0.0
  outer loop
    vertex 26.374062555013786 27.70262489659252 0.0
    vertex 26.468133268382054 23.905477780537705 -45.0
    vertex 26.468133268382054 23.905477780537705 0.0
  endloop
endfacet
facet normal -0.9943734205073573 0.10593158447081989 0.0
  outer loop
    vertex 26.468133268382054 23.905477780537705 -45.0
    vertex 26.374062555013786 27.70262489659252 0.0
    vertex 26.374062555013786 27.70262489659252 -45.0
  endloop
endfacet
facet normal -0.914118435242808 -0.4054472670388101 0.0
  outer loop
    vertex 25.300423232782855 31.346040070002843 0.0
    vertex 26.374062555013786 27.70262489659252 -45.0
    vertex 26.374062555013786 27.70262489659252 0.0
  endloop
endfacet
facet normal -0.9879080793823909 -0.15504072591095408 0.0
  outer loop
    vertex 26.374062555013786 27.70262489659252 -45.0
    vertex 25.300423232782855 31.346040070002843 0.0
    vertex 25.300423232782855 31.346040070002843 -45.0
  endloop
endfacet
facet normal -0.7780331303935677 -0.6282232469512613 0.0
  outer loop
    vertex 23.32038204722641 34.587430577729 0.0
    vertex 25.300423232782855 31.346040070002843 -45.0
    vertex 25.300423232782855 31.346040070002843 0.0
  endloop
endfacet
facet normal -0.914118435242808 -0.4054472670388101 0.0
  outer loop
    vertex 25.300423232782855 31.346040070002843 -45.0
    vertex 23.32038204722641 34.587430577729 0.0
    vertex 23.32038204722641 34.587430577729 -45.0
  endloop
endfacet
facet normal -0.7780331303935677 -0.6282232469512613 0.0
  outer loop
    vertex 23.32038204722641 34.587430577729 0.0
    vertex 20.937773648040515 36.85483922115009 -45.0
    vertex 23.32038204722641 34.587430577729 -45.0
  endloop
endfacet
facet normal -0.6893773608186174 -0.7244024119167175 -0.0
  outer loop
    vertex 20.937773648040515 36.85483922115009 -45.0
    vertex 23.32038204722641 34.587430577729 0.0
    vertex 20.937773648040515 36.85483922115009 0.0
  endloop
endfacet
facet normal -0.7753155166176713 0.6315741046717109 0.0
  outer loop
    vertex 23.08086386748374 39.4856803027514 0.0
    vertex 20.937773648040515 36.85483922115009 -45.0
    vertex 20.937773648040515 36.85483922115009 0.0
  endloop
endfacet
facet normal -0.7753155166176713 0.6315741046717109 0.0
  outer loop
    vertex 20.937773648040515 36.85483922115009 -45.0
    vertex 23.08086386748374 39.4856803027514 0.0
    vertex 23.08086386748374 39.4856803027514 -45.0
  endloop
endfacet
facet normal 0.6528134418613603 0.757518719323242 0.0
  outer loop
    vertex 23.08086386748374 39.4856803027514 0.0
    vertex 25.446782334588146 37.44678233458815 -45.0
    vertex 23.08086386748374 39.4856803027514 -45.0
  endloop
endfacet
facet normal 0.7461045663378686 0.665828788871269 0.0
  outer loop
    vertex 25.446782334588146 37.44678233458815 -45.0
    vertex 23.08086386748374 39.4856803027514 0.0
    vertex 25.446782334588146 37.44678233458815 0.0
  endloop
endfacet
facet normal 0.7461045663378686 0.665828788871269 0.0
  outer loop
    vertex 25.446782334588146 37.44678233458815 -45.0
    vertex 28.09442287869655 33.55760888651741 0.0
    vertex 28.09442287869655 33.55760888651741 -45.0
  endloop
endfacet
facet normal 0.8930108410753822 0.45003515165133345 0.0
  outer loop
    vertex 28.09442287869655 33.55760888651741 0.0
    vertex 25.446782334588146 37.44678233458815 -45.0
    vertex 25.446782334588146 37.44678233458815 0.0
  endloop
endfacet
facet normal 0.8930108410753822 0.45003515165133345 0.0
  outer loop
    vertex 28.09442287869655 33.55760888651741 -45.0
    vertex 29.645255100913158 29.115696012707332 0.0
    vertex 29.645255100913158 29.115696012707332 -45.0
  endloop
endfacet
facet normal 0.9790599027638004 0.20357236256461106 0.0
  outer loop
    vertex 29.645255100913158 29.115696012707332 0.0
    vertex 28.09442287869655 33.55760888651741 -45.0
    vertex 28.09442287869655 33.55760888651741 0.0
  endloop
endfacet
facet normal 0.9790599027638004 0.20357236256461106 0.0
  outer loop
    vertex 29.645255100913158 29.115696012707332 -45.0
    vertex 29.993592348165322 24.42375273489996 0.0
    vertex 29.993592348165322 24.42375273489996 -45.0
  endloop
endfacet
facet normal 0.9983876500518556 -0.05676354661165351 0.0
  outer loop
    vertex 29.993592348165322 24.42375273489996 0.0
    vertex 29.645255100913158 29.115696012707332 -45.0
    vertex 29.645255100913158 29.115696012707332 0.0
  endloop
endfacet
facet normal 0.9983876500518556 -0.05676354661165351 0.0
  outer loop
    vertex 29.993592348165322 24.42375273489996 -45.0
    vertex 29.11569601270734 19.80152723367499 0.0
    vertex 29.11569601270734 19.80152723367499 -45.0
  endloop
endfacet
facet normal 0.9496769289024792 -0.3132311138925302 0.0
  outer loop
    vertex 29.11569601270734 19.80152723367499 0.0
    vertex 29.993592348165322 24.42375273489996 -45.0
    vertex 29.993592348165322 24.42375273489996 0.0
  endloop
endfacet
facet normal 0.9496769289024792 -0.3132311138925302 0.0
  outer loop
    vertex 29.11569601270734 19.80152723367499 -45.0
    vertex 27.07139327900837 15.564016538352096 0.0
    vertex 27.07139327900837 15.564016538352096 -45.0
  endloop
endfacet
facet normal 0.8362472944637284 -0.548352498400522 0.0
  outer loop
    vertex 27.07139327900837 15.564016538352096 0.0
    vertex 29.11569601270734 19.80152723367499 -45.0
    vertex 29.11569601270734 19.80152723367499 0.0
  endloop
endfacet
facet normal 0.8362472944637284 -0.548352498400522 0.0
  outer loop
    vertex 27.07139327900837 15.564016538352096 -45.0
    vertex 24.0 12.0 0.0
    vertex 24.0 12.0 -45.0
  endloop
endfacet
facet normal 0.7575187193232431 -0.6528134418613587 0.0
  outer loop
    vertex 24.0 12.0 0.0
    vertex 27.07139327900837 15.564016538352096 -45.0
    vertex 27.07139327900837 15.564016538352096 0.0
  endloop
endfacet
facet normal 0.9999999999999999 0.0 0.0
  outer loop
    vertex 24.0 12.0 -45.0
    vertex 24.0 0.0 0.0
    vertex 24.0 0.0 -45.0
  endloop
endfacet
facet normal 0.9999999999999999 0.0 0.0
  outer loop
    vertex 24.0 0.0 0.0
    vertex 24.0 12.0 -45.0
    vertex 24.0 12.0 0.0
  endloop
endfacet
facet normal -0.0 -1.0 -0.0
  outer loop
    vertex 24.0 0.0 0.0
    vertex 17.8 0.0 -45.0
    vertex 24.0 0.0 -45.0
  endloop
endfacet
facet normal -0.0 -1.0 -0.0
  outer loop
    vertex 17.8 0.0 -45.0
    vertex 24.0 0.0 0.0
    vertex 17.8 0.0 0.0
  endloop
endfacet
facet normal -1.0 0.0 0.0
  outer loop
    vertex 17.8 3.15 0.0
    vertex 17.8 0.0 -45.0
    vertex 17.8 0.0 0.0
  endloop
endfacet
facet normal -1.0 0.0 0.0
  outer loop
    vertex 17.8 0.0 -45.0
    vertex 17.8 3.15 0.0
    vertex 17.8 3.15 -45.0
  endloop
endfacet
facet normal -0.0 1.0 0.0
  outer loop
    vertex 17.8 3.15 0.0
    vertex 21.0 3.15 -45.0
    vertex 17.8 3.15 -45.0
  endloop
endfacet
facet normal -0.0 1.0 0.0
  outer loop
    vertex 21.0 3.15 -45.0
    vertex 17.8 3.15 0.0
    vertex 21.0 3.15 0.0
  endloop
endfacet
facet normal -0.9999999999999999 0.0 0.0
  outer loop
    vertex 21.0 6.15 0.0
    vertex 21.0 3.15 -45.0
    vertex 21.0 3.15 0.0
  endloop
endfacet
facet normal -0.9999999999999999 0.0 0.0
  outer loop
    vertex 21.0 3.15 -45.0
    vertex 21.0 6.15 0.0
    vertex 21.0 6.15 -45.0
  endloop
endfacet
facet normal -0.0 -1.0 -0.0
  outer loop
    vertex 21.0 6.15 0.0
    vertex 3.0 6.15 -45.0
    vertex 21.0 6.15 -45.0
  endloop
endfacet
facet normal -0.0 -1.0 -0.0
  outer loop
    vertex 3.0 6.15 -45.0
    vertex 21.0 6.15 0.0
    vertex 3.0 6.15 0.0
  endloop
endfacet
facet normal 0.9999999999999999 0.0 0.0
  outer loop
    vertex 3.0 6.15 -45.0
    vertex 3.0 3.15 0.0
    vertex 3.0 3.15 -45.0
  endloop
endfacet
facet normal 0.9999999999999999 0.0 0.0
  outer loop
    vertex 3.0 3.15 0.0
    vertex 3.0 6.15 -45.0
    vertex 3.0 6.15 0.0
  endloop
endfacet
facet normal -0.0 1.0 0.0
  outer loop
    vertex 3.0 3.15 0.0
    vertex 6.200000000000001 3.15 -45.0
    vertex 3.0 3.15 -45.0
  endloop
endfacet
facet normal -0.0 1.0 0.0
  outer loop
    vertex 6.200000000000001 3.15 -45.0
    vertex 3.0 3.15 0.0
    vertex 6.200000000000001 3.15 0.0
  endloop
endfacet
facet normal 1.0 0.0 0.0
  outer loop
    vertex 6.200000000000001 3.15 -45.0
    vertex 6.200000000000001 0.0 0.0
    vertex 6.200000000000001 0.0 -45.0
  endloop
endfacet
facet normal 1.0 0.0 0.0
  outer loop
    vertex 6.200000000000001 0.0 0.0
    vertex 6.200000000000001 3.15 -45.0
    vertex 6.200000000000001 3.15 0.0
  endloop
endfacet
facet normal -0.0 -0.9999999999999999 -0.0
  outer loop
    vertex 6.200000000000001 0.0 0.0
    vertex 0.0 0.0 -45.0
    vertex 6.200000000000001 0.0 -45.0
  endloop
endfacet
facet normal -0.0 -0.9999999999999999 -0.0
  outer loop
    vertex 0.0 0.0 -45.0
    vertex 6.200000000000001 0.0 0.0
    vertex 0.0 0.0 0.0
  endloop
endfacet
facet normal -0.9999999999999999 0.0 0.0
  outer loop
    vertex 0.0 12.0 0.0
    vertex 0.0 0.0 -45.0
    vertex 0.0 0.0 0.0
  endloop
endfacet
facet normal -0.9999999999999999 0.0 0.0
  outer loop
    vertex 0.0 0.0 -45.0
    vertex 0.0 12.0 0.0
    vertex 0.0 12.0 -45.0
  endloop
endfacet
facet normal -0.0 1.0 0.0
  outer loop
    vertex 0.0 12.0 0.0
    vertex 0.23205059218461518 12.0 -45.0
    vertex 0.0 12.0 -45.0
  endloop
endfacet
facet normal -0.0 1.0 0.0
  outer loop
    vertex 0.23205059218461518 12.0 -45.0
    vertex 0.0 12.0 0.0
    vertex 0.23205059218461518 12.0 0.0
  endloop
endfacet
facet normal -0.6528134418613593 -0.7575187193232426 -0.0
  outer loop
    vertex 0.23205059218461518 12.0 0.0
    vertex -1.4467823345881485 13.446782334588152 -45.0
    vertex 0.23205059218461518 12.0 -45.0
  endloop
endfacet
facet normal -0.7461045663378683 -0.6658287888712697 0.0
  outer loop
    vertex -1.4467823345881485 13.446782334588152 -45.0
    vertex 0.23205059218461518 12.0 0.0
    vertex -1.4467823345881485 13.446782334588152 0.0
  endloop
endfacet
facet normal -0.8930108410753822 -0.4500351516513334 0.0
  outer loop
    vertex -4.094422878696557 17.33595578265889 0.0
    vertex -1.4467823345881485 13.446782334588152 -45.0
    vertex -1.4467823345881485 13.446782334588152 0.0
  endloop
endfacet
facet normal -0.7461045663378683 -0.6658287888712697 0.0
  outer loop
    vertex -1.4467823345881485 13.446782334588152 -45.0
    vertex -4.094422878696557 17.33595578265889 0.0
    vertex -4.094422878696557 17.33595578265889 -45.0
  endloop
endfacet
facet normal -0.9790599027638006 -0.20357236256461048 0.0
  outer loop
    vertex -5.645255100913158 21.777868656468968 0.0
    vertex -4.094422878696557 17.33595578265889 -45.0
    vertex -4.094422878696557 17.33595578265889 0.0
  endloop
endfacet
facet normal -0.8930108410753822 -0.4500351516513334 0.0
  outer loop
    vertex -4.094422878696557 17.33595578265889 -45.0
    vertex -5.645255100913158 21.777868656468968 0.0
    vertex -5.645255100913158 21.777868656468968 -45.0
  endloop
endfacet
facet normal -0.9983876500518557 0.05676354661165423 0.0
  outer loop
    vertex -5.99359234816532 26.46981193427634 0.0
    vertex -5.645255100913158 21.777868656468968 -45.0
    vertex -5.645255100913158 21.777868656468968 0.0
  endloop
endfacet
facet normal -0.9790599027638006 -0.20357236256461048 0.0
  outer loop
    vertex -5.645255100913158 21.777868656468968 -45.0
    vertex -5.99359234816532 26.46981193427634 0.0
    vertex -5.99359234816532 26.46981193427634 -45.0
  endloop
endfacet
facet normal -0.9496769289024792 0.3132311138925305 0.0
  outer loop
    vertex -5.1156960127073345 31.092037435501307 0.0
    vertex -5.99359234816532 26.46981193427634 -45.0
    vertex -5.99359234816532 26.46981193427634 0.0
  endloop
endfacet
facet normal -0.9983876500518557 0.05676354661165423 0.0
  outer loop
    vertex -5.99359234816532 26.46981193427634 -45.0
    vertex -5.1156960127073345 31.092037435501307 0.0
    vertex -5.1156960127073345 31.092037435501307 -45.0
  endloop
endfacet
facet normal -0.836247294463728 0.5483524984005225 0.0
  outer loop
    vertex -3.0713932790083636 35.32954813082421 0.0
    vertex -5.1156960127073345 31.092037435501307 -45.0
    vertex -5.1156960127073345 31.092037435501307 0.0
  endloop
endfacet
facet normal -0.9496769289024792 0.3132311138925305 0.0
  outer loop
    vertex -5.1156960127073345 31.092037435501307 -45.0
    vertex -3.0713932790083636 35.32954813082421 0.0
    vertex -3.0713932790083636 35.32954813082421 -45.0
  endloop
endfacet
facet normal -0.6658287888712701 0.7461045663378678 0.0
  outer loop
    vertex 2.8199664825478975e-15 38.89356466917629 0.0
    vertex -3.0713932790083636 35.32954813082421 -45.0
    vertex -3.0713932790083636 35.32954813082421 0.0
  endloop
endfacet
facet normal -0.836247294463728 0.5483524984005225 0.0
  outer loop
    vertex -3.0713932790083636 35.32954813082421 -45.0
    vertex 2.8199664825478975e-15 38.89356466917629 0.0
    vertex 2.8199664825478975e-15 38.89356466917629 -45.0
  endloop
endfacet
endsolid Unbenannt
